<?xml version="1.0" standalone="no"?>
<!DOCTYPE svg PUBLIC "-//W3C//DTD SVG 20010904//EN"
 "http://www.w3.org/TR/2001/REC-SVG-20010904/DTD/svg10.dtd">
<svg version="1.0" xmlns="http://www.w3.org/2000/svg"
 width="975.000000pt" height="467.000000pt" viewBox="0 0 975.000000 467.000000"
 preserveAspectRatio="xMidYMid meet">

<g transform="translate(0.000000,467.000000) scale(0.100000,-0.100000)"
fill="#000000" stroke="none">
<path d="M3452 4609 c-107 -19 -206 -90 -244 -176 -14 -32 -30 -49 -61 -64
-172 -87 -312 -249 -372 -429 -26 -80 -153 -659 -186 -848 -23 -136 -25 -302
-4 -390 30 -128 109 -246 222 -333 l68 -52 -40 6 c-115 18 -301 29 -386 23
-286 -18 -484 -100 -641 -265 l-76 -79 -32 45 c-46 63 -171 160 -265 204 -268
126 -655 125 -904 -1 -77 -38 -174 -117 -238 -191 -176 -207 -212 -520 -89
-763 l45 -89 -40 -44 c-101 -110 -141 -214 -141 -370 0 -173 42 -276 161 -393
162 -160 413 -242 741 -243 322 -1 549 83 729 267 l54 55 72 -67 c88 -82 196
-145 323 -188 150 -51 268 -67 457 -61 304 11 487 79 652 244 l62 61 88 -86
c101 -100 167 -142 290 -185 77 -27 105 -31 219 -35 111 -4 143 -1 215 18 111
28 211 82 283 152 l59 57 66 -55 c81 -68 200 -127 306 -154 206 -53 483 -6
600 100 19 18 21 18 78 -20 136 -92 381 -123 574 -74 86 21 191 76 254 133
l57 51 46 -36 c231 -176 684 -227 1002 -113 100 37 212 109 281 182 l52 55 83
-82 c147 -143 310 -210 518 -211 133 0 216 21 314 79 58 36 58 36 85 17 99
-70 197 -96 335 -88 256 13 467 172 535 402 20 66 23 93 19 174 -5 85 -10 107
-47 193 -23 54 -46 124 -51 155 -6 32 -10 356 -10 728 0 728 0 726 -56 837
-53 105 -173 191 -319 229 -90 24 -276 25 -382 3 -141 -29 -273 -116 -322
-212 -12 -23 -26 -72 -33 -110 -10 -58 -9 -79 4 -133 9 -35 19 -72 23 -81 7
-16 -2 -18 -91 -18 -236 0 -450 -102 -590 -280 l-48 -62 -20 29 c-71 97 -177
182 -298 237 -147 67 -304 92 -479 76 -59 -5 -118 -12 -133 -16 -40 -10 -31 1
27 34 104 59 194 177 243 322 28 81 26 280 -5 420 -12 58 -54 251 -92 430 -38
179 -83 366 -100 416 -58 177 -195 338 -357 419 -41 21 -57 36 -76 73 -33 63
-89 115 -161 149 -59 28 -63 28 -250 28 -159 0 -199 -3 -248 -19 -67 -22 -136
-78 -173 -142 -20 -34 -32 -44 -52 -45 -15 -1 -358 -1 -762 0 l-735 1 -15 22
c-8 12 -42 50 -75 83 -85 87 -118 97 -325 101 -91 1 -189 -1 -218 -7z m375
-262 c16 -15 35 -49 44 -75 14 -45 19 -49 100 -91 210 -110 318 -312 307 -575
-6 -133 -35 -223 -106 -329 -91 -136 -213 -215 -418 -272 -6 -2 -33 -34 -59
-72 -88 -126 -237 -304 -289 -345 -89 -72 -147 -93 -251 -93 -82 0 -97 3 -157
33 -154 75 -227 236 -200 434 14 95 152 739 182 848 32 114 68 177 145 256 55
56 88 80 153 110 82 39 83 39 103 96 37 100 57 108 266 105 152 -2 153 -2 180
-30z m2404 10 c23 -15 39 -39 54 -77 20 -54 22 -56 107 -98 141 -69 226 -160
284 -303 15 -35 46 -156 70 -269 23 -113 64 -297 90 -410 43 -182 48 -218 48
-325 1 -111 -1 -124 -27 -176 -34 -70 -109 -142 -185 -177 -49 -23 -70 -27
-147 -26 -102 0 -171 24 -238 83 -43 38 -282 327 -320 387 -23 37 -32 43 -94
58 -216 55 -391 232 -448 455 -75 295 42 586 282 701 71 33 73 35 96 95 20 52
28 63 67 83 40 20 59 22 186 22 130 0 144 -2 175 -23z m-1040 -358 c19 -7 46
-23 62 -37 51 -48 25 -132 -41 -132 -16 0 -37 9 -47 20 -50 56 -132 -18 -88
-79 14 -18 42 -33 94 -49 99 -32 100 -32 128 -86 46 -89 25 -207 -48 -269 -84
-71 -272 -55 -322 27 -25 41 -24 71 3 90 32 23 69 20 108 -9 58 -43 122 -26
135 35 10 48 -14 73 -103 109 -114 46 -162 102 -162 189 1 134 150 235 281
191z m-675 -10 c3 -6 26 -99 50 -206 24 -108 46 -198 49 -201 10 -11 17 9 61
199 26 107 51 200 56 207 11 13 115 17 135 4 9 -5 -5 -74 -52 -257 -70 -278
-101 -390 -110 -405 -10 -16 -160 -13 -174 4 -6 7 -27 80 -46 162 -18 82 -50
216 -69 297 -36 148 -42 188 -29 200 11 11 121 8 129 -4z m4666 -1339 c45 -14
74 -31 101 -58 68 -70 67 -54 67 -836 0 -423 4 -719 10 -746 6 -25 29 -85 52
-134 53 -112 59 -175 28 -258 -28 -76 -92 -140 -178 -181 -62 -29 -75 -32
-167 -32 -83 0 -107 4 -141 22 -73 39 -114 107 -114 190 0 17 -4 34 -9 38 -5
3 -30 -21 -55 -53 -62 -81 -108 -119 -194 -160 -127 -60 -300 -57 -432 9 -344
172 -472 767 -274 1269 105 266 303 400 573 388 102 -5 104 -5 215 -62 61 -31
119 -56 128 -56 23 0 32 69 25 189 -9 127 -19 159 -68 206 -50 49 -69 84 -69
127 0 108 139 173 347 162 51 -2 120 -13 155 -24z m-3236 -24 c73 -33 135 -93
166 -161 l23 -50 6 -770 c5 -748 6 -772 26 -847 12 -42 28 -89 36 -105 29 -55
39 -112 27 -148 -15 -45 -74 -95 -142 -120 -74 -28 -295 -29 -383 -2 -75 23
-138 83 -154 145 -9 32 -9 177 0 590 6 301 9 684 8 852 l-4 305 -39 70 c-65
115 -52 194 39 239 61 30 92 35 215 33 102 -2 122 -6 176 -31z m-829 -122 c57
-42 68 -69 68 -157 0 -45 -4 -103 -8 -129 -7 -40 -5 -50 12 -67 18 -18 34 -21
109 -21 79 0 91 -2 110 -22 56 -61 54 -350 -3 -416 -22 -26 -28 -27 -142 -30
-65 -2 -124 -8 -130 -14 -10 -8 -13 -79 -13 -292 0 -250 2 -285 19 -321 28
-62 42 -69 154 -75 111 -6 126 -16 147 -88 16 -58 12 -212 -6 -265 -45 -131
-195 -217 -379 -217 -248 1 -417 113 -488 323 -20 58 -22 89 -27 502 l-5 440
-55 5 c-30 3 -60 9 -67 13 -21 13 -33 78 -33 180 0 169 25 218 126 251 105 34
155 80 253 233 58 91 136 168 185 183 50 15 142 7 173 -16z m-1104 2 c69 -28
93 -113 71 -249 -17 -105 -18 -103 6 -127 17 -17 33 -20 108 -20 126 0 126 0
130 -190 4 -163 -6 -222 -41 -245 -15 -9 -64 -17 -137 -21 -65 -4 -118 -12
-122 -18 -4 -6 -8 -136 -8 -289 0 -302 3 -325 55 -365 23 -19 41 -22 112 -22
46 0 93 -4 103 -10 32 -17 55 -105 55 -210 0 -81 -4 -103 -26 -150 -63 -133
-188 -200 -372 -200 -194 1 -376 101 -451 248 -54 107 -58 147 -50 576 5 283
4 397 -4 413 -9 16 -23 21 -73 25 -50 4 -65 9 -80 29 -42 55 -53 241 -20 315
22 48 51 70 146 109 86 36 162 108 253 242 90 132 148 172 255 173 32 0 72 -6
90 -14z m-2915 -397 c166 -18 290 -69 385 -158 63 -58 93 -111 106 -186 19
-105 -9 -179 -83 -217 -32 -17 -59 -21 -126 -21 -111 0 -154 21 -209 102 -45
66 -53 71 -122 71 -61 0 -84 -11 -104 -50 -32 -62 -10 -125 58 -164 23 -13
116 -50 207 -81 91 -31 193 -72 227 -90 104 -59 187 -168 211 -280 20 -95 22
-121 12 -197 -41 -327 -411 -507 -890 -433 -170 26 -291 76 -378 159 -73 69
-94 113 -100 207 -10 171 82 292 222 293 83 0 125 -16 204 -81 80 -66 101 -77
168 -91 97 -21 172 25 160 97 -9 58 -38 76 -220 136 -257 84 -365 155 -426
279 -90 182 -51 387 99 536 119 118 230 159 484 179 10 0 61 -4 115 -10z
m1569 1 c311 -42 502 -234 559 -562 38 -222 -13 -347 -157 -377 -31 -7 -194
-11 -421 -11 l-370 0 6 -32 c16 -79 98 -156 194 -184 42 -13 86 -15 191 -12
126 4 144 7 244 42 139 49 193 48 243 -7 63 -68 67 -193 10 -304 -91 -180
-354 -287 -665 -269 -384 21 -635 202 -744 536 -56 171 -61 411 -13 588 50
181 107 285 216 394 112 110 243 170 440 201 52 9 192 7 267 -3z m4568 -15
c175 -45 293 -141 370 -299 65 -132 79 -196 80 -356 0 -124 -2 -138 -24 -177
-16 -27 -41 -51 -75 -70 l-51 -28 -362 -3 c-400 -3 -377 1 -349 -66 22 -53 81
-112 139 -137 40 -17 76 -24 155 -27 119 -5 195 7 299 49 86 34 145 37 190 9
53 -32 68 -72 68 -180 -1 -119 -21 -168 -102 -249 -103 -103 -251 -157 -456
-168 -267 -14 -479 54 -634 201 -177 167 -252 377 -240 671 12 280 93 482 262
650 112 113 224 168 390 195 81 12 267 5 340 -15z"/>
<path d="M3500 4032 c-20 -17 -24 -32 -31 -125 -4 -58 -10 -111 -14 -117 -4
-6 -49 -10 -109 -10 -145 0 -150 -4 -154 -142 -3 -93 -2 -106 18 -131 21 -26
25 -27 119 -27 137 0 141 -4 141 -129 0 -124 13 -145 92 -154 86 -9 157 5 185
37 21 24 23 37 23 126 0 120 0 120 129 120 77 0 94 3 110 19 24 24 35 94 28
174 -5 50 -10 66 -32 84 -23 20 -37 23 -119 23 -63 0 -97 4 -104 13 -5 6 -12
59 -14 115 -4 137 -10 142 -148 142 -80 0 -102 -3 -120 -18z"/>
<path d="M5995 4086 c-89 -41 -121 -146 -70 -231 60 -104 216 -101 272 5 42
79 24 159 -49 213 -34 25 -113 32 -153 13z"/>
<path d="M5673 3779 c-57 -28 -87 -78 -87 -144 0 -92 56 -154 144 -163 95 -9
161 49 168 148 6 84 -31 143 -107 169 -48 16 -70 14 -118 -10z"/>
<path d="M6300 3778 c-57 -29 -84 -76 -84 -143 0 -64 27 -112 80 -142 79 -46
172 -21 212 57 50 98 11 206 -87 239 -49 16 -71 14 -121 -11z"/>
<path d="M5990 3468 c-61 -32 -83 -66 -88 -135 -3 -48 0 -64 20 -92 39 -58 72
-76 138 -76 71 0 104 21 138 86 44 84 13 182 -72 220 -54 24 -83 24 -136 -3z"/>
<path d="M8505 1633 c-49 -25 -92 -72 -117 -127 -20 -45 -22 -67 -23 -186 0
-155 9 -193 64 -253 93 -103 239 -103 333 1 20 22 42 60 49 84 19 66 16 293
-5 347 -39 104 -104 151 -208 151 -37 -1 -75 -7 -93 -17z"/>
<path d="M2390 1698 c-59 -30 -99 -88 -107 -157 -4 -40 -3 -55 8 -62 8 -5 94
-9 191 -9 199 0 208 3 208 69 0 73 -49 146 -113 170 -49 19 -138 13 -187 -11z"/>
<path d="M6935 1701 c-75 -34 -132 -123 -123 -196 l3 -30 192 -3 c215 -3 223
0 223 66 -1 71 -51 148 -113 171 -44 17 -137 13 -182 -8z"/>
</g>
</svg>
