<?xml version="1.0" encoding="UTF-8"?>
<svg version="1.1" xmlns="http://www.w3.org/2000/svg" width="460" height="650">
<path d="M0 0 C10.38196783 8.50840079 13.09597363 19.48105581 14.609375 32.37109375 C15.18639087 40.1474174 15.16728423 47.95252637 15.234375 55.74609375 C15.26497486 58.0659355 15.29691686 60.38575986 15.33007812 62.70556641 C15.40956919 68.47155939 15.4764703 74.23760469 15.53855515 80.00380898 C15.64785057 90.04861203 15.78278198 100.09310319 15.91665649 110.13760376 C15.92742659 110.94615499 15.93819668 111.75470623 15.94929314 112.58775902 C15.97105202 114.22087846 15.99284793 115.85399741 16.01468086 117.48711586 C16.07758195 122.22638945 16.136133 126.96569029 16.19088173 131.70506477 C16.36062277 146.34248613 16.5618317 160.97985702 16.96095276 175.6130867 C17.01325434 177.57139257 17.05849176 179.52988329 17.10339355 181.4883728 C17.36442325 190.23803282 18.3060573 198.72434644 19.609375 207.37109375 C21.78759025 205.1928785 22.12038041 204.1840297 22.91943359 201.28173828 C23.15465729 200.43102753 23.38988098 199.58031677 23.63223267 198.7038269 C23.87992401 197.77160309 24.12761536 196.83937927 24.3828125 195.87890625 C24.6457309 194.89955109 24.90864929 193.92019592 25.17953491 192.91116333 C28.28570959 181.11351093 30.76693644 169.19027705 33.234375 157.24609375 C33.74840574 154.78572922 34.26281872 152.32544452 34.77758789 149.86523438 C37.4089158 137.24495225 39.97384672 124.61262531 42.47277069 111.96551895 C42.87723282 109.91862513 43.28245286 107.8718825 43.68780518 105.82516479 C44.97483219 99.32181201 46.25193134 92.81671083 47.51220703 86.30810547 C55.7936697 43.921831 55.7936697 43.921831 68.609375 33.37109375 C74.37786294 29.6090364 80.93250681 28.63603367 87.671875 29.93359375 C95.21385989 32.21722264 99.95155551 37.01698324 103.6015625 43.83203125 C111.4723239 63.66146888 105.87645705 87.9683708 102.85524368 108.3363533 C102.32783737 111.92328643 101.82219285 115.51327051 101.31616211 119.10327148 C101.21377889 119.82913232 101.11139566 120.55499315 101.00590992 121.30284977 C100.79823417 122.77529063 100.59061845 124.24773995 100.38306236 125.72019768 C100.07043608 127.93271917 99.75568521 130.14492918 99.44038391 132.35707092 C97.54296406 145.6902455 95.78891699 159.03882178 94.11502075 172.40206909 C93.82556331 174.70881828 93.53358009 177.01525232 93.23873901 179.32131958 C90.61491695 199.84568845 88.57537146 220.43060173 87.921875 241.12109375 C87.88352539 242.33079834 87.84517578 243.54050293 87.80566406 244.78686523 C87.18650074 267.94878414 86.65339833 296.81708502 100.046875 316.76171875 C101.85657887 318.62571374 103.07240154 318.99929591 105.609375 319.37109375 C105.609375 320.03109375 105.609375 320.69109375 105.609375 321.37109375 C106.98814298 321.16581052 108.36242494 320.93036365 109.734375 320.68359375 C110.50007813 320.55597656 111.26578125 320.42835938 112.0546875 320.296875 C118.62124342 317.91725152 122.09333298 312.6849783 125.609375 306.99609375 C126.07158447 306.26640381 126.53379395 305.53671387 127.01000977 304.78491211 C131.54808286 297.57870685 135.92375192 290.27135237 140.33032227 282.984375 C171.27072495 232.03270322 171.27072495 232.03270322 191.609375 224.37109375 C201.8767312 221.87878545 210.16930159 221.51612847 219.359375 226.93359375 C224.72304845 230.80631601 227.65250952 235.39788412 229.19921875 241.8203125 C231.72378379 259.8893904 219.2002891 276.19221276 210.75610352 291.1550293 C206.4485309 298.80759171 202.33811482 306.50845546 198.54248047 314.42675781 C197.5553958 316.48357161 196.55313904 318.5326216 195.55078125 320.58203125 C190.38588149 331.2320895 185.69203838 342.06363122 181.05834961 352.95385742 C177.04733984 362.37726786 172.94256728 371.74908708 168.66845703 381.05615234 C167.60468455 383.38134614 166.55827696 385.71389191 165.51171875 388.046875 C153.73903211 413.95163365 138.16183744 437.77509302 118.97338867 458.77075195 C117.50229569 460.38890866 116.040811 462.01592097 114.59448242 463.65625 C110.58591391 468.19364466 106.47123095 472.55310529 102.12890625 476.7734375 C101.19240234 477.68416016 100.25589844 478.59488281 99.29101562 479.53320312 C97.85380359 480.92345384 96.41650854 482.31369364 94.96704102 483.69116211 C82.21346056 495.84325991 75.89230061 509.25222773 75.43579102 526.97021484 C75.40780387 528.69492926 75.38382921 530.41971216 75.36328125 532.14453125 C75.33034621 534.04036926 75.29713451 535.93620248 75.26367188 537.83203125 C75.21633967 540.78968077 75.17185884 543.7473104 75.13256836 546.70507812 C75.09257283 549.58092398 75.04110823 552.4563963 74.98828125 555.33203125 C74.97566002 556.64027359 74.97566002 556.64027359 74.96278381 557.97494507 C74.74946363 568.71169515 72.73757612 577.45330297 64.7890625 585.12890625 C43.94451516 601.92269135 9.65833176 597.69949413 -15.41015625 597.63183594 C-19.64523585 597.62049731 -23.88006252 597.62718427 -28.11513329 597.63871288 C-102.5792516 597.81079977 -102.5792516 597.81079977 -117.21484375 584.7421875 C-124.69004417 576.65159528 -125.51268466 567.40591022 -125.6015625 556.90625 C-125.62966059 555.03449691 -125.6583252 553.16275225 -125.6875 551.29101562 C-125.72844926 548.37557487 -125.76538138 545.46028644 -125.79199219 542.54467773 C-125.88641689 521.0068654 -125.88641689 521.0068654 -132.828125 500.87109375 C-133.16448975 500.23276611 -133.50085449 499.59443848 -133.84741211 498.93676758 C-135.00967416 496.73759307 -136.19875764 494.5543573 -137.390625 492.37109375 C-160.390625 449.87996747 -160.390625 449.87996747 -160.390625 433.37109375 C-161.050625 433.04109375 -161.710625 432.71109375 -162.390625 432.37109375 C-162.93334961 429.75585937 -162.93334961 429.75585937 -163.35546875 426.27734375 C-163.52030762 425.00503906 -163.68514648 423.73273438 -163.85498047 422.421875 C-163.94108582 421.7530127 -164.02719116 421.08415039 -164.11590576 420.39501953 C-164.55548893 417.15649966 -165.10180541 413.93745843 -165.64453125 410.71484375 C-165.96647461 408.77931641 -165.96647461 408.77931641 -166.29492188 406.8046875 C-166.73383081 404.18165309 -167.17654193 401.55925207 -167.62304688 398.9375 C-167.94305664 397.00197266 -167.94305664 397.00197266 -168.26953125 395.02734375 C-168.4610376 393.89103516 -168.65254395 392.75472656 -168.84985352 391.58398438 C-170.40497965 380.59576413 -170.546144 369.50162927 -170.62042046 358.4254837 C-170.63724986 355.99759894 -170.66049585 353.5698444 -170.68531799 351.14202881 C-170.75492231 344.24856443 -170.81543394 337.35504524 -170.86743164 330.46142578 C-171.20135998 287.32807737 -176.39180946 249.70933891 -189.8293457 208.54614258 C-192.75151432 199.5242956 -195.48539896 190.45783683 -198.10775757 181.34466553 C-198.53816995 179.84899399 -198.97056582 178.35389147 -199.40518188 176.85943604 C-211.70502814 134.47744266 -211.70502814 134.47744266 -202.640625 116.99609375 C-198.63479053 112.3226202 -194.58096433 107.8251092 -188.19140625 107.1328125 C-180.23356747 106.89545153 -175.36247846 108.77072197 -169.390625 113.99609375 C-167.390625 116.37109375 -167.390625 116.37109375 -167.390625 118.37109375 C-166.730625 118.37109375 -166.070625 118.37109375 -165.390625 118.37109375 C-154.88571012 137.21372045 -148.58619624 158.07177616 -141.49072266 178.36572266 C-141.21625305 179.15070129 -140.94178345 179.93567993 -140.65899658 180.7444458 C-140.10601753 182.3262023 -139.55324177 183.90802989 -139.00067139 185.4899292 C-135.405868 195.77232989 -131.72752871 206.01226202 -127.828125 216.18359375 C-127.43488037 217.21387695 -127.04163574 218.24416016 -126.63647461 219.30566406 C-123.54860326 229.11152454 -123.54860326 229.11152454 -117.390625 236.37109375 C-116.86805783 222.09795941 -118.41383453 208.78433399 -120.890625 194.74609375 C-121.25245911 192.62625674 -121.61261318 190.50613237 -121.97119141 188.38574219 C-122.71947999 183.96859751 -123.47496983 179.55277353 -124.23535156 175.13769531 C-125.96745057 165.04139578 -127.60415992 154.92949232 -129.24584961 144.81817627 C-129.75355666 141.69532484 -130.26397583 138.57292977 -130.77539062 135.45068359 C-131.65282519 130.09173522 -132.52480799 124.73193131 -133.390625 119.37109375 C-133.56226166 118.31047226 -133.56226166 118.31047226 -133.73736572 117.22842407 C-134.03138908 115.40281967 -134.32059453 113.57644108 -134.609375 111.75 C-134.76083984 110.79424072 -134.91230469 109.83848145 -135.06835938 108.85375977 C-135.48453062 105.64766477 -135.54067956 102.59726685 -135.390625 99.37109375 C-136.050625 99.04109375 -136.710625 98.71109375 -137.390625 98.37109375 C-137.76953125 95.78125 -137.76953125 95.78125 -137.953125 92.43359375 C-138.19479252 88.4547106 -138.46704817 84.51471908 -138.953125 80.55859375 C-140.27215768 67.26014949 -140.83302078 52.65291423 -132.91015625 41.1875 C-128.28003919 35.65278423 -123.17833417 30.92214548 -115.77734375 30.0703125 C-107.62851086 30.03493406 -101.032778 31.11756735 -94.828125 36.81640625 C-85.41916057 46.99240582 -83.12603774 60.18038893 -81.05859375 73.47265625 C-80.86125137 74.69205399 -80.663909 75.91145172 -80.46058655 77.1678009 C-79.93350854 80.43464966 -79.41444405 83.70264366 -78.89888 86.97132492 C-78.35694292 90.3923076 -77.80345606 93.81141988 -77.25097656 97.23071289 C-75.95304129 105.27574139 -74.67067604 113.32320127 -73.390625 121.37109375 C-68.55941747 168.82233231 -68.55941747 168.82233231 -54.390625 213.37109375 C-53.730625 213.37109375 -53.070625 213.37109375 -52.390625 213.37109375 C-48.82365464 206.93621293 -49.24096274 199.21657616 -49.07421875 192.01171875 C-49.0430471 190.81667473 -49.0430471 190.81667473 -49.01124573 189.5974884 C-48.94475167 186.93878876 -48.8857579 184.27999955 -48.828125 181.62109375 C-48.80661377 180.68248505 -48.78510254 179.74387634 -48.76293945 178.77682495 C-48.37254253 161.32815037 -48.351446 143.88584483 -48.390625 126.43359375 C-48.42947054 107.48515554 -48.39525604 88.54259838 -48.07324219 69.59640503 C-48.03550612 67.36120235 -48.00056944 65.12595025 -47.96875 62.89065552 C-47.29542739 17.02362117 -47.29542739 17.02362117 -36.45703125 4.3125 C-26.14976386 -5.3712654 -12.1159905 -8.25550333 0 0 Z M-29.265625 11.99609375 C-37.54154116 25.14019589 -36.52693278 42.0493444 -36.58007812 57.00390625 C-36.5928097 58.97419263 -36.60554142 60.94447901 -36.6182785 62.91476536 C-36.63090324 65.00328119 -36.64128283 67.09179703 -36.65098572 69.18032837 C-36.67151559 73.57297241 -36.69912541 77.96555599 -36.72766113 82.3581543 C-36.78734943 91.69577191 -36.83930278 101.03342702 -36.890625 110.37109375 C-36.94603736 120.43111548 -37.00304228 130.49111844 -37.06817389 140.55108261 C-37.09153166 144.19121193 -37.11312542 147.83133225 -37.13026428 151.47149658 C-37.19233485 164.57200988 -37.26183744 177.6674578 -37.82617188 190.7578125 C-37.87949299 192.0395208 -37.87949299 192.0395208 -37.9338913 193.34712219 C-38.48191399 204.46804616 -39.12644328 216.10691203 -47.390625 224.37109375 C-51.60122235 225.64406504 -54.73808129 225.53868149 -58.73046875 223.546875 C-75.85991328 211.41519781 -76.13919513 170.08086052 -79.44543457 150.79257202 C-80.77715372 142.98821216 -82.0847696 135.17981474 -83.390625 127.37109375 C-83.66174407 125.7525975 -83.93290212 124.13410778 -84.20410156 122.515625 C-84.85093124 118.65380156 -85.49623765 114.79172588 -86.14068604 110.92950439 C-86.38953945 109.43885502 -86.63868236 107.94825394 -86.88812256 106.45770264 C-88.08704475 99.29330515 -89.27856916 92.1284304 -90.40383911 84.95204163 C-90.72931916 82.8798447 -91.05908056 80.80837325 -91.39013672 78.73706055 C-91.79145659 76.21651486 -92.18445173 73.69462146 -92.56689453 71.17114258 C-94.06643494 61.82728938 -96.10683596 51.76378674 -102.390625 44.37109375 C-106.77435954 41.44860405 -110.16840099 40.81156975 -115.390625 41.37109375 C-120.97874782 43.45294343 -123.92983481 46.44951337 -126.578125 51.74609375 C-129.99831236 62.79592983 -128.57272206 75.02934998 -127.1796875 86.32421875 C-127.04680328 87.43420227 -126.91391907 88.54418579 -126.77700806 89.68780518 C-125.27176794 101.89443647 -123.36612735 114.03657774 -121.40325928 126.17669678 C-120.85968977 129.53921035 -120.32113238 132.90244421 -119.78535652 136.26620293 C-117.51962843 150.48537306 -115.18310746 164.69001063 -112.734375 178.87890625 C-112.31456455 181.32844172 -111.89480439 183.77798582 -111.47509766 186.22753906 C-110.69445227 190.77946694 -109.89485051 195.32748124 -109.08349609 199.87402344 C-103.78115848 230.22300256 -103.78115848 230.22300256 -109.125 242.5859375 C-110.66611125 244.7596654 -111.90837459 245.44844596 -114.390625 246.37109375 C-118.45363041 246.8225388 -120.73064862 246.72013638 -124.3671875 244.796875 C-127.84727064 242.00471527 -129.55296567 239.14669226 -131.390625 235.18359375 C-131.73037354 234.47581787 -132.07012207 233.76804199 -132.42016602 233.03881836 C-135.65369545 226.13245022 -138.14236554 219.02552528 -140.56152344 211.80322266 C-142.12444165 207.21847848 -143.79919973 202.67361306 -145.453125 198.12109375 C-148.21927504 190.49050041 -150.92886281 182.84367845 -153.578125 175.171875 C-161.78549513 143.94967064 -161.78549513 143.94967064 -179.34765625 119.1796875 C-182.55767142 117.90918436 -184.97821613 117.95202599 -188.390625 118.37109375 C-192.57592235 121.71933163 -194.78796388 124.83991704 -196.015625 129.99609375 C-197.54193045 143.73284283 -194.02756058 156.39360659 -190.34375 169.5234375 C-189.88961983 171.14324524 -189.88961983 171.14324524 -189.42631531 172.79577637 C-185.21125274 187.69321211 -180.58638225 202.46858447 -175.99829102 217.25439453 C-164.79742721 253.37457275 -164.79742721 253.37457275 -162.703125 270.05859375 C-162.58283936 271.01604492 -162.46255371 271.97349609 -162.33862305 272.95996094 C-160.11091472 292.22480183 -160.35676498 311.65534771 -160.44161987 331.01715088 C-160.65976932 383.94587762 -156.1457863 437.45736599 -129.58203125 484.33984375 C-121.59833734 498.4734085 -116.6401298 510.85457891 -115.828125 527.24609375 C-115.78494141 528.08035889 -115.74175781 528.91462402 -115.69726562 529.77416992 C-115.44305823 535.08276675 -115.3459765 540.36976582 -115.390625 545.68359375 C-115.9227813 562.39343029 -115.9227813 562.39343029 -109.265625 577.12109375 C-82.25688633 598.25836749 -18.20700321 588.24967244 14.671875 586.55859375 C15.77704468 586.50619034 15.77704468 586.50619034 16.90454102 586.45272827 C39.06087391 585.56919672 39.06087391 585.56919672 58.421875 576.05859375 C63.51369529 569.80292883 64.04182926 564.1949 64.015625 556.40625 C64.03187927 554.97979408 64.03187927 554.97979408 64.04846191 553.52452087 C64.08255864 550.4941431 64.09826083 547.46413742 64.109375 544.43359375 C64.23819377 509.86255767 64.23819377 509.86255767 71.046875 497.18359375 C71.39266602 496.52327148 71.73845703 495.86294922 72.09472656 495.18261719 C76.15430532 487.83856668 81.65744586 482.20270687 87.609375 476.37109375 C91.00925614 473.0001628 94.40320473 469.6232763 97.796875 466.24609375 C98.67512939 465.37404297 99.55338379 464.50199219 100.45825195 463.60351562 C105.43830732 458.63243844 110.17571709 453.68543291 114.484375 448.1171875 C116.17167059 445.93673014 117.89456066 443.82445768 119.671875 441.71875 C127.2193871 432.73282804 133.70164349 423.50438941 139.609375 413.37109375 C139.97450195 412.75363281 140.33962891 412.13617188 140.71582031 411.5 C152.52493745 391.46156984 162.08550329 370.34835232 171.20587158 348.98919678 C181.89810567 323.95468502 192.9082566 299.05667365 207.20874023 275.83666992 C213.10616139 266.20015729 219.77055187 255.24129255 218.046875 243.55859375 C216.16939054 239.39547604 213.7375447 236.4351786 209.609375 234.37109375 C198.89818606 232.99294403 191.0333474 236.22787871 182.58203125 242.68359375 C179.46702521 245.36372564 176.91282824 248.4276217 174.421875 251.68359375 C173.94830566 252.2976709 173.47473633 252.91174805 172.98681641 253.54443359 C164.23031213 265.01397594 156.51000768 277.0314708 149.046875 289.37109375 C148.49287018 290.28687698 148.49287018 290.28687698 147.92767334 291.22116089 C144.47023295 296.94069548 141.02630214 302.6678801 137.61328125 308.4140625 C125.50309943 328.60150279 125.50309943 328.60150279 114.609375 331.37109375 C107.64337174 332.21048749 102.04295167 332.11740888 96.28125 327.84375 C88.17750966 320.70564227 84.70223646 311.5063555 81.921875 301.30859375 C81.61830078 300.22251831 81.61830078 300.22251831 81.30859375 299.11450195 C77.4986873 284.29872825 77.26147865 269.11443994 77.29370117 253.91137695 C77.29681795 250.8643662 77.27346023 247.81837299 77.24804688 244.77148438 C77.12448721 210.48796799 82.68597159 176.45691415 87.24694824 142.56085205 C88.2261141 135.27424449 89.19710354 127.98654347 90.16879082 120.69893551 C90.92302199 115.04275253 91.67856699 109.38675756 92.43850708 103.7313385 C92.57716187 102.69689606 92.71581665 101.66245361 92.8586731 100.59666443 C93.11491771 98.68510311 93.37190076 96.77364054 93.62982178 94.86230469 C94.90971595 85.2993525 95.81118099 75.96546791 95.859375 66.30859375 C95.88 65.27154297 95.900625 64.23449219 95.921875 63.16601562 C95.96101341 55.45085695 95.00449957 49.8549113 90.546875 43.37109375 C86.27197365 40.46052262 82.62978746 40.52359647 77.609375 41.37109375 C71.9336345 43.94124039 69.16499999 47.88094591 66.609375 53.37109375 C65.75349221 55.88607716 64.9558897 58.37990609 64.21386719 60.92773438 C63.997243 61.67030235 63.78061882 62.41287033 63.55743027 63.17794037 C61.02559785 72.10582292 59.26475704 81.17326283 57.5 90.27734375 C57.12595358 92.17280837 56.7510753 94.06810899 56.37542725 95.96325684 C55.3925061 100.93059919 54.41815683 105.89957749 53.4465332 110.86914062 C44.33391672 157.45905008 44.33391672 157.45905008 39.36034393 180.41471863 C38.98042979 182.16973248 38.6028915 183.92526267 38.22797394 185.68135071 C32.66081222 211.6864103 32.66081222 211.6864103 26.609375 217.37109375 C23.69718933 219.05709598 21.97773081 219.37876783 18.609375 219.30859375 C14.65131298 218.07169937 13.14438736 216.65975843 10.609375 213.37109375 C-1.00657303 188.93422382 5.33678809 149.55016705 5.109375 122.99609375 C4.91001105 99.98613248 4.70583209 76.97551243 4.25779724 53.96879196 C4.22187626 52.07212066 4.18887831 50.17539131 4.15907288 48.27861404 C4.29979517 28.79709794 4.29979517 28.79709794 -3.390625 11.37109375 C-11.31116128 4.33061706 -21.63552875 5.02948413 -29.265625 11.99609375 Z " fill="#52FAB9" transform="translate(220.390625,29.62890625)"/>
<path d="M0 0 C2.75 1.0625 2.75 1.0625 4.125 3.625 C4.434375 4.8315625 4.434375 4.8315625 4.75 6.0625 C1.37820602 10.36122628 -1.95171073 13.59828817 -6.375 16.875 C-7.5346997 17.74887904 -8.69354053 18.62389893 -9.8515625 19.5 C-10.42551758 19.93183594 -10.99947266 20.36367188 -11.59082031 20.80859375 C-44.73600644 45.85769263 -64.77078693 81.04156242 -70.640625 122.109375 C-71.10103155 125.61467886 -71.44421628 129.11726908 -71.734375 132.640625 C-71.81212158 133.55674561 -71.88986816 134.47286621 -71.9699707 135.41674805 C-72.11241863 137.19023271 -72.23666167 138.96529601 -72.34057617 140.74145508 C-72.52734375 143.16015625 -72.52734375 143.16015625 -73.25 147.0625 C-75.23266602 148.18139648 -75.23266602 148.18139648 -77.25 149.0625 C-77.745 150.0525 -77.745 150.0525 -78.25 151.0625 C-78.25 150.4025 -78.25 149.7425 -78.25 149.0625 C-78.889375 148.93875 -79.52875 148.815 -80.1875 148.6875 C-80.868125 148.48125 -81.54875 148.275 -82.25 148.0625 C-90.59332896 131.37584207 -78.20914586 99.90005517 -72.84375 83.77734375 C-61.18699301 50.15946906 -37.98630225 24.26326693 -9.25 4.0625 C-8.65445313 3.59585937 -8.05890625 3.12921875 -7.4453125 2.6484375 C-4.79858423 0.63253566 -3.3740019 0.06488465 0 0 Z " fill="#52FAB9" transform="translate(260.25,333.9375)"/>
<path d="M0 0 C0.33 0 0.66 0 1 0 C1.8779116 15.2064542 2.13506977 30.35250239 2.09765625 45.58203125 C2.0957851 47.86130237 2.0943645 50.14057391 2.09336853 52.41984558 C2.08959817 58.34285647 2.07981652 64.2658418 2.06866455 70.18884277 C2.05833077 76.26326146 2.0538456 82.33768438 2.04882812 88.41210938 C2.03818782 100.27475065 2.02117957 112.13737318 2 124 C1.67 124 1.34 124 1 124 C0.98969254 123.22707108 0.97938507 122.45414215 0.96876526 121.65779114 C0.87015735 114.31842053 0.76756247 106.97912094 0.66066074 99.63986683 C0.60585804 95.86809129 0.55251421 92.09630768 0.50268555 88.32446289 C0.45440285 84.67393522 0.40205163 81.02348514 0.34705925 77.3730526 C0.32692061 75.99106506 0.30816681 74.60905652 0.29092598 73.2270298 C0.20676943 66.55045472 0.0383165 59.9222362 -0.52734375 53.26757812 C-1.02819951 47.29932512 -1.04722728 41.43224928 -0.87890625 35.44921875 C-0.85529526 34.42439896 -0.83168427 33.39957916 -0.80735779 32.34370422 C-0.73182107 29.12478814 -0.64733575 25.90618299 -0.5625 22.6875 C-0.50916868 20.48243623 -0.45642942 18.27735806 -0.40429688 16.07226562 C-0.27635839 10.71465854 -0.14110645 5.3572756 0 0 Z " fill="#57FDC5" transform="translate(225,59)"/>
<path d="M0 0 C0.33 0 0.66 0 1 0 C1.38063221 2.3260857 1.71269945 4.66055264 2 7 C1.67 7.33 1.34 7.66 1 8 C0.07056411 13.29434221 -0.28218863 18.57482179 -0.5625 23.9375 C-0.60568359 24.71673828 -0.64886719 25.49597656 -0.69335938 26.29882812 C-0.79828077 28.19907117 -0.8995245 30.09951669 -1 32 C-1.33 32 -1.66 32 -2 32 C-2.22256188 21.09446805 -1.93915661 10.76924476 0 0 Z " fill="#55EFB1" transform="translate(179,448)"/>
<path d="M0 0 C1.39211215 4.17633644 -0.0464421 5.78960515 -1.9375 9.6875 C-2.50339844 10.86699219 -3.06929688 12.04648437 -3.65234375 13.26171875 C-4.09707031 14.16535156 -4.54179687 15.06898438 -5 16 C-5.33 16 -5.66 16 -6 16 C-5.54177532 12.53058454 -5.10868317 9.32604951 -4 6 C-3.34 6 -2.68 6 -2 6 C-1.34 4.02 -0.68 2.04 0 0 Z " fill="#56F2B3" transform="translate(398,386)"/>
<path d="M0 0 C3.12290635 0.48578543 5.99580359 0.9986012 9 2 C9 2.66 9 3.32 9 4 C11.97 4.495 11.97 4.495 15 5 C11.35879332 6.33256282 9.33123446 5.65840377 5.8125 4.1875 C4.93207031 3.83042969 4.05164063 3.47335937 3.14453125 3.10546875 C1 2 1 2 0 0 Z " fill="#52EEB2" transform="translate(107,616)"/>
<path d="M0 0 C0.33 0.66 0.66 1.32 1 2 C0.22265625 4.1640625 0.22265625 4.1640625 -0.9375 6.625 C-1.31777344 7.44226563 -1.69804687 8.25953125 -2.08984375 9.1015625 C-2.39019531 9.72804688 -2.69054687 10.35453125 -3 11 C-3.33 11 -3.66 11 -4 11 C-3.38461538 3.49230769 -3.38461538 3.49230769 -1.4375 1 C-0.963125 0.67 -0.48875 0.34 0 0 Z " fill="#57F2B5" transform="translate(403,375)"/>
<path d="M0 0 C3.45925163 1.2491742 6.14693203 2.67527795 9 5 C8.67 5.66 8.34 6.32 8 7 C4.84866512 5.16172132 1.88035092 3.24027294 -1 1 C-0.67 0.67 -0.34 0.34 0 0 Z " fill="#54F1B2" transform="translate(435,255)"/>
<path d="M0 0 C0.33 0.99 0.66 1.98 1 3 C-2.63 2.34 -6.26 1.68 -10 1 C-6.1496895 -1.56687367 -4.41430237 -0.83288724 0 0 Z " fill="#50F3B1" transform="translate(42,147)"/>
<path d="M0 0 C0.66 0 1.32 0 2 0 C1.46930939 3.82097239 0.50298434 6.06171403 -2 9 C-1.125 2.25 -1.125 2.25 0 0 Z " fill="#57F2B4" transform="translate(417,341)"/>
<path d="M0 0 C0.33 1.32 0.66 2.64 1 4 C-1.375 5.5625 -1.375 5.5625 -4 7 C-4.66 6.67 -5.32 6.34 -6 6 C-4.625 4.5 -4.625 4.5 -3 3 C-2.34 3 -1.68 3 -1 3 C-0.67 2.01 -0.34 1.02 0 0 Z " fill="#52F1B1" transform="translate(281,602)"/>
<path d="M0 0 C0.66 0 1.32 0 2 0 C1.67 0.66 1.34 1.32 1 2 C0.67 1.34 0.34 0.68 0 0 Z " fill="#52E9AE" transform="translate(55,455)"/>
<path d="" fill="#55EAAB" transform="translate(0,0)"/>
<path d="" fill="#53E7AA" transform="translate(0,0)"/>
<path d="M0 0 C2 1 2 1 2 1 Z " fill="#53E7A9" transform="translate(231,351)"/>
<path d="" fill="#54EDAE" transform="translate(0,0)"/>
<path d="" fill="#58F1B0" transform="translate(0,0)"/>
<path d="" fill="#53ECAE" transform="translate(0,0)"/>
<path d="" fill="#55EEAE" transform="translate(0,0)"/>
<path d="" fill="#52E6A8" transform="translate(0,0)"/>
<path d="" fill="#54F6B3" transform="translate(0,0)"/>
<path d="" fill="#55F4AF" transform="translate(0,0)"/>
<path d="M0 0 C2 1 2 1 2 1 Z " fill="#55F1B0" transform="translate(38,150)"/>
<path d="" fill="#55F0AE" transform="translate(0,0)"/>
<path d="" fill="#54DFA5" transform="translate(0,0)"/>
<path d="" fill="#385148" transform="translate(0,0)"/>
<path d="" fill="#53D79E" transform="translate(0,0)"/>
<path d="" fill="#3A564E" transform="translate(0,0)"/>
<path d="" fill="#53E2A6" transform="translate(0,0)"/>
<path d="" fill="#54D7A0" transform="translate(0,0)"/>
<path d="" fill="#52DEA4" transform="translate(0,0)"/>
<path d="" fill="#51DB9F" transform="translate(0,0)"/>
<path d="" fill="#3D5A51" transform="translate(0,0)"/>
<path d="" fill="#55EBAB" transform="translate(0,0)"/>
<path d="" fill="#55EDAB" transform="translate(0,0)"/>
<path d="" fill="#56ECAB" transform="translate(0,0)"/>
<path d="" fill="#426058" transform="translate(0,0)"/>
<path d="" fill="#55EFAE" transform="translate(0,0)"/>
<path d="" fill="#57EDAD" transform="translate(0,0)"/>
<path d="" fill="#42655A" transform="translate(0,0)"/>
<path d="" fill="#406C5B" transform="translate(0,0)"/>
<path d="" fill="#438B6A" transform="translate(0,0)"/>
<path d="" fill="#43675B" transform="translate(0,0)"/>
<path d="" fill="#43685C" transform="translate(0,0)"/>
<path d="" fill="#469370" transform="translate(0,0)"/>
<path d="" fill="#4A6F64" transform="translate(0,0)"/>
<path d="" fill="#487265" transform="translate(0,0)"/>
<path d="" fill="#4B7568" transform="translate(0,0)"/>
<path d="" fill="#58EBA9" transform="translate(0,0)"/>
<path d="" fill="#55E8AB" transform="translate(0,0)"/>
<path d="" fill="#58E8A8" transform="translate(0,0)"/>
<path d="" fill="#558777" transform="translate(0,0)"/>
<path d="" fill="#588A7A" transform="translate(0,0)"/>
<path d="" fill="#56ECAE" transform="translate(0,0)"/>
<path d="" fill="#56E7AB" transform="translate(0,0)"/>
<path d="" fill="#5D8F7F" transform="translate(0,0)"/>
<path d="" fill="#5D9181" transform="translate(0,0)"/>
<path d="" fill="#54DEA5" transform="translate(0,0)"/>
<path d="" fill="#59E8AA" transform="translate(0,0)"/>
<path d="" fill="#56E9A9" transform="translate(0,0)"/>
<path d="" fill="#57DCA6" transform="translate(0,0)"/>
<path d="" fill="#5E9584" transform="translate(0,0)"/>
<path d="" fill="#54E6AC" transform="translate(0,0)"/>
<path d="" fill="#54EAAF" transform="translate(0,0)"/>
<path d="" fill="#53E7AD" transform="translate(0,0)"/>
<path d="" fill="#5AE8A9" transform="translate(0,0)"/>
<path d="" fill="#67A691" transform="translate(0,0)"/>
<path d="" fill="#68A693" transform="translate(0,0)"/>
<path d="" fill="#5AE0AA" transform="translate(0,0)"/>
<path d="" fill="#5AEFAD" transform="translate(0,0)"/>
<path d="" fill="#6AB99E" transform="translate(0,0)"/>
<path d="" fill="#5BEFAD" transform="translate(0,0)"/>
<path d="" fill="#54ECAE" transform="translate(0,0)"/>
<path d="" fill="#5AEBAD" transform="translate(0,0)"/>
<path d="" fill="#6BBC9F" transform="translate(0,0)"/>
<path d="" fill="#54E7A7" transform="translate(0,0)"/>
<path d="" fill="#6CBFA1" transform="translate(0,0)"/>
<path d="" fill="#53E6A6" transform="translate(0,0)"/>
<path d="" fill="#67CBA4" transform="translate(0,0)"/>
<path d="" fill="#53EDAE" transform="translate(0,0)"/>
<path d="" fill="#56EAAB" transform="translate(0,0)"/>
<path d="" fill="#68D2A7" transform="translate(0,0)"/>
<path d="" fill="#59F0AE" transform="translate(0,0)"/>
<path d="" fill="#63D9A9" transform="translate(0,0)"/>
<path d="" fill="#58F1AF" transform="translate(0,0)"/>
<path d="" fill="#5CEEB0" transform="translate(0,0)"/>
<path d="" fill="#53EAAB" transform="translate(0,0)"/>
<path d="" fill="#55EBAA" transform="translate(0,0)"/>
<path d="" fill="#5EE2AA" transform="translate(0,0)"/>
<path d="" fill="#54EEAF" transform="translate(0,0)"/>
<path d="" fill="#55F0AF" transform="translate(0,0)"/>
<path d="" fill="#5CE4AB" transform="translate(0,0)"/>
<path d="" fill="#55EFB0" transform="translate(0,0)"/>
<path d="" fill="#54F0AF" transform="translate(0,0)"/>
<path d="" fill="#58EFB2" transform="translate(0,0)"/>
<path d="" fill="#5EEDAF" transform="translate(0,0)"/>
<path d="" fill="#56EFB0" transform="translate(0,0)"/>
<path d="" fill="#58EFB1" transform="translate(0,0)"/>
<path d="" fill="#59EFAF" transform="translate(0,0)"/>
<path d="" fill="#55EFAE" transform="translate(0,0)"/>
<path d="" fill="#58EDAD" transform="translate(0,0)"/>
<path d="" fill="#53EDAB" transform="translate(0,0)"/>
<path d="" fill="#5AEFAF" transform="translate(0,0)"/>
<path d="" fill="#53F1AD" transform="translate(0,0)"/>
<path d="" fill="#58DCA1" transform="translate(0,0)"/>
<path d="" fill="#58DCA1" transform="translate(0,0)"/>
<path d="" fill="#55EDAE" transform="translate(0,0)"/>
<path d="" fill="#58E2A7" transform="translate(0,0)"/>
<path d="" fill="#56EDB0" transform="translate(0,0)"/>
<path d="" fill="#54F1B1" transform="translate(0,0)"/>
<path d="" fill="#57E1A6" transform="translate(0,0)"/>
<path d="" fill="#57F2B0" transform="translate(0,0)"/>
<path d="" fill="#56F5B3" transform="translate(0,0)"/>
<path d="" fill="#56F6B2" transform="translate(0,0)"/>
<path d="" fill="#57F7B1" transform="translate(0,0)"/>
<path d="" fill="#57F2B1" transform="translate(0,0)"/>
<path d="" fill="#57F4AF" transform="translate(0,0)"/>
<path d="" fill="#57F2B0" transform="translate(0,0)"/>
<path d="" fill="#4EAB85" transform="translate(0,0)"/>
<path d="" fill="#56F4B1" transform="translate(0,0)"/>
<path d="" fill="#56F6AF" transform="translate(0,0)"/>
<path d="" fill="#56F4B2" transform="translate(0,0)"/>
<path d="" fill="#56F4B1" transform="translate(0,0)"/>
<path d="" fill="#53E9A9" transform="translate(0,0)"/>
<path d="" fill="#479776" transform="translate(0,0)"/>
<path d="" fill="#50E7A9" transform="translate(0,0)"/>
<path d="" fill="#459072" transform="translate(0,0)"/>
<path d="" fill="#56E4A8" transform="translate(0,0)"/>
<path d="" fill="#55F2AF" transform="translate(0,0)"/>
<path d="" fill="#50E3A6" transform="translate(0,0)"/>
<path d="" fill="#56F3B2" transform="translate(0,0)"/>
<path d="" fill="#58F4B2" transform="translate(0,0)"/>
<path d="" fill="#57F4B0" transform="translate(0,0)"/>
<path d="" fill="#57F5B1" transform="translate(0,0)"/>
<path d="" fill="#57F5B3" transform="translate(0,0)"/>
<path d="" fill="#58F4B2" transform="translate(0,0)"/>
<path d="" fill="#56F7B0" transform="translate(0,0)"/>
<path d="" fill="#56F5B1" transform="translate(0,0)"/>
<path d="" fill="#51E0A4" transform="translate(0,0)"/>
<path d="" fill="#3F8168" transform="translate(0,0)"/>
<path d="" fill="#54F3B0" transform="translate(0,0)"/>
<path d="" fill="#418067" transform="translate(0,0)"/>
<path d="" fill="#54DFA3" transform="translate(0,0)"/>
<path d="" fill="#57F6B4" transform="translate(0,0)"/>
<path d="" fill="#53F1AC" transform="translate(0,0)"/>
<path d="" fill="#56E0A5" transform="translate(0,0)"/>
<path d="" fill="#57F5B0" transform="translate(0,0)"/>
<path d="" fill="#56F1AE" transform="translate(0,0)"/>
<path d="" fill="#38705B" transform="translate(0,0)"/>
<path d="" fill="#54ECA9" transform="translate(0,0)"/>
<path d="" fill="#53EAAA" transform="translate(0,0)"/>
<path d="" fill="#386855" transform="translate(0,0)"/>
<path d="" fill="#54EAA7" transform="translate(0,0)"/>
<path d="" fill="#5AF2AF" transform="translate(0,0)"/>
<path d="" fill="#336352" transform="translate(0,0)"/>
<path d="" fill="#52E4A3" transform="translate(0,0)"/>
<path d="" fill="#55F1AF" transform="translate(0,0)"/>
<path d="" fill="#53F1B0" transform="translate(0,0)"/>
<path d="" fill="#55F4AE" transform="translate(0,0)"/>
<path d="" fill="#55F0AD" transform="translate(0,0)"/>
<path d="" fill="#55EDAB" transform="translate(0,0)"/>
<path d="" fill="#52F0AE" transform="translate(0,0)"/>
<path d="" fill="#53E9A8" transform="translate(0,0)"/>
<path d="" fill="#54E7A5" transform="translate(0,0)"/>
<path d="" fill="#56F2AE" transform="translate(0,0)"/>
<path d="" fill="#50D198" transform="translate(0,0)"/>
<path d="" fill="#57EBAA" transform="translate(0,0)"/>
<path d="" fill="#54F0AB" transform="translate(0,0)"/>
<path d="" fill="#4FD9A0" transform="translate(0,0)"/>
<path d="" fill="#4ED79C" transform="translate(0,0)"/>
<path d="" fill="#50D59B" transform="translate(0,0)"/>
<path d="" fill="#53ECAB" transform="translate(0,0)"/>
<path d="" fill="#274C3F" transform="translate(0,0)"/>
<path d="" fill="#27463A" transform="translate(0,0)"/>
<path d="" fill="#4DD699" transform="translate(0,0)"/>
<path d="" fill="#203F35" transform="translate(0,0)"/>
<path d="" fill="#2A5B44" transform="translate(0,0)"/>
</svg>
