<?xml version="1.0" encoding="UTF-8"?>
<svg version="1.1" xmlns="http://www.w3.org/2000/svg" width="460" height="650">
<path d="M0 0 C0.81017578 0.75410156 0.81017578 0.75410156 1.63671875 1.5234375 C2.52359375 2.2659375 3.41046875 3.0084375 4.32421875 3.7734375 C15.08954853 16.57545129 15.81489877 33.89079334 15.76171875 49.8359375 C15.76558594 51.01478516 15.76945312 52.19363281 15.7734375 53.40820312 C15.77150391 55.09913086 15.77150391 55.09913086 15.76953125 56.82421875 C15.76840332 57.84684814 15.76727539 58.86947754 15.76611328 59.9230957 C15.63671875 62.5234375 15.63671875 62.5234375 14.63671875 65.5234375 C15.52810547 65.52730469 15.52810547 65.52730469 16.4375 65.53125 C25.66881821 65.96194914 33.23639512 69.56475841 39.57421875 76.3359375 C43.30548689 81.00002267 46.63671875 86.43576807 46.63671875 92.5234375 C47.18199219 92.67039062 47.72726562 92.81734375 48.2890625 92.96875 C57.95390402 95.84342081 65.52445508 100.6704931 70.63671875 109.5234375 C78.78132517 126.85683065 76.24384389 146.26610898 73.88671875 164.7734375 C73.72985596 166.04421143 73.57299316 167.31498535 73.41137695 168.62426758 C71.56465578 182.14651798 68.86662598 196.32475549 57.63671875 205.20703125 C50.13515917 210.14458121 42.47198626 211.21982006 33.63671875 211.5234375 C33.92546875 212.131875 34.21421875 212.7403125 34.51171875 213.3671875 C39.97620938 226.26945705 38.75972519 239.67814112 33.63671875 252.5234375 C27.14653155 266.22676946 18.59749087 273.86652659 4.63671875 279.5234375 C-1.51457373 281.52769969 -7.82684721 282.44437401 -14.19921875 283.4453125 C-15.77920654 283.69728394 -15.77920654 283.69728394 -17.39111328 283.9543457 C-19.49150183 284.28457045 -21.59404066 284.60147835 -23.69873047 284.90307617 C-34.53503518 286.56945196 -43.29733892 289.89155735 -50.046875 298.984375 C-50.96782755 300.28695801 -51.88565734 301.59175302 -52.80078125 302.8984375 C-62.07110687 315.64458316 -73.12250256 325.95223669 -85.74414062 335.29785156 C-98.71372303 345.11499627 -107.80505174 355.805868 -116.36328125 369.5234375 C-117.02328125 370.5134375 -117.68328125 371.5034375 -118.36328125 372.5234375 C-119.02328125 372.5234375 -119.68328125 372.5234375 -120.36328125 372.5234375 C-120.63269531 373.1215625 -120.90210938 373.7196875 -121.1796875 374.3359375 C-124.59847667 380.65449174 -130.82077688 383.61974235 -137.4140625 385.76953125 C-161.96428699 392.045284 -190.01086999 378.74861254 -211.11328125 366.9609375 C-231.70500283 354.19944967 -246.34073597 335.68070276 -252.55078125 312.16015625 C-257.27078109 291.03361848 -255.81705348 271.36384027 -248.98828125 251.0234375 C-238.45665977 219.25231161 -236.21810263 184.56661229 -232.56640625 151.45703125 C-232.49029491 150.76768808 -232.41418358 150.07834492 -232.33576584 149.36811256 C-231.50898719 141.87231986 -230.69466049 134.37537317 -229.89892578 126.8762207 C-228.5823121 114.58931802 -227.14161282 102.34501888 -225.26953125 90.12890625 C-225.10754242 89.07177429 -224.94555359 88.01464233 -224.77865601 86.92547607 C-222.27212572 71.11030665 -217.7301198 56.38830763 -206.36328125 44.5234375 C-205.70328125 44.5234375 -205.04328125 44.5234375 -204.36328125 44.5234375 C-204.03328125 43.5334375 -203.70328125 42.5434375 -203.36328125 41.5234375 C-189.49690434 29.1379358 -171.7147601 23.933711 -154.36328125 18.5234375 C-153.52555176 18.26208008 -152.68782227 18.00072266 -151.82470703 17.73144531 C-146.98957874 16.23526226 -142.13899149 14.79640711 -137.28027344 13.37890625 C-133.932052 12.39697054 -130.58931628 11.39725721 -127.24609375 10.3984375 C-102.63772965 3.07785218 -77.98627129 -3.87307552 -52.36328125 -6.4765625 C-51.48043457 -6.569375 -50.59758789 -6.6621875 -49.68798828 -6.7578125 C-12.18170662 -10.47064929 -12.18170662 -10.47064929 0 0 Z M-137.93603516 24.43701172 C-141.40520899 25.53672846 -144.88589656 26.58647462 -148.375 27.62109375 C-181.79304836 37.15725477 -181.79304836 37.15725477 -205.67578125 60.9609375 C-210.09354521 69.43826835 -212.95571749 77.83250015 -214.45166016 87.26098633 C-214.61684961 88.25743321 -214.78203907 89.2538801 -214.95223427 90.28052235 C-216.48240116 99.75966699 -217.62485979 109.27260645 -218.63996506 118.8188839 C-218.96206962 121.8433209 -219.29433893 124.86650995 -219.6288147 127.88960266 C-220.57602514 136.46769221 -221.5049639 145.04773978 -222.43066406 153.62817383 C-224.70670993 174.68196918 -226.98259582 195.71101514 -230.46484375 216.60546875 C-230.58178967 217.31511969 -230.69873558 218.02477062 -230.81922531 218.75592613 C-233.28560249 233.55671049 -237.08924335 247.93246305 -241.33789062 262.3125 C-246.50004244 280.02655069 -245.91433327 298.9643806 -240.36328125 316.5234375 C-239.93015625 317.92916016 -239.93015625 317.92916016 -239.48828125 319.36328125 C-236.34810225 328.23709066 -230.52860492 336.47184855 -224.36328125 343.5234375 C-223.70328125 343.5234375 -223.04328125 343.5234375 -222.36328125 343.5234375 C-222.13769531 344.09707031 -221.91210938 344.67070313 -221.6796875 345.26171875 C-214.0970557 358.2894452 -191.72181055 365.64124251 -178.55078125 370.4609375 C-177.01321167 371.02748047 -177.01321167 371.02748047 -175.44458008 371.60546875 C-164.19933735 375.56683027 -148.26185998 380.21561607 -136.86328125 374.7734375 C-135.09761065 373.79927179 -135.09761065 373.79927179 -133.36328125 372.5234375 C-132.18185547 371.69972656 -132.18185547 371.69972656 -130.9765625 370.859375 C-127.66334844 367.89778755 -125.47153648 364.59866075 -123.05078125 360.8984375 C-114.05525983 347.51386258 -104.30520424 336.22987974 -91.36328125 326.5234375 C-79.62778494 317.64300546 -69.43349775 308.41036209 -60.40869141 296.72021484 C-57.54430304 293.0106639 -54.62864531 289.37341549 -51.55078125 285.8359375 C-50.88433594 285.06894531 -50.21789062 284.30195312 -49.53125 283.51171875 C-47.00853457 281.19809324 -44.47163836 279.92707488 -41.36328125 278.5234375 C-40.70328125 278.1934375 -40.04328125 277.8634375 -39.36328125 277.5234375 C-37.47663817 277.11779642 -35.58170014 276.75042267 -33.68359375 276.40234375 C-32.52601563 276.18900391 -31.3684375 275.97566406 -30.17578125 275.75585938 C-28.95890625 275.53478516 -27.74203125 275.31371094 -26.48828125 275.0859375 C-25.31007813 274.86873047 -24.131875 274.65152344 -22.91796875 274.42773438 C-16.28964692 273.21229871 -9.65763735 272.06247834 -2.99829102 271.02954102 C5.79708223 269.34022306 12.88297261 265.43858796 18.63671875 258.5234375 C23.00049212 251.45312531 26.79546419 243.89009649 27.63671875 235.5234375 C27.71792969 234.72550781 27.79914063 233.92757812 27.8828125 233.10546875 C28.20474208 226.81320872 27.1361126 220.85673828 23.63671875 215.5234375 C19.25099703 212.05408462 16.35729643 211.02272184 10.79272461 211.00927734 C10.13663712 211.00215225 9.48054962 210.99502716 8.80458069 210.98768616 C6.65326193 210.96851306 4.50293744 210.97666303 2.3515625 210.984375 C0.84752477 210.97446044 -0.65650082 210.9625163 -2.1605072 210.94863892 C-6.10907171 210.91634735 -10.05735894 210.9058911 -14.00604248 210.90179443 C-20.32888305 210.89302268 -26.6514967 210.85745708 -32.9741497 210.8096199 C-35.17719451 210.79706726 -37.37994987 210.7977897 -39.58302307 210.79989624 C-40.93824484 210.79331373 -42.29346463 210.78630704 -43.64868164 210.77880859 C-45.41690025 210.77692032 -45.41690025 210.77692032 -47.22084045 210.7749939 C-50.33934642 210.52535351 -52.5513416 209.85353856 -55.36328125 208.5234375 C-55.40600225 206.85731845 -55.40391957 205.18960865 -55.36328125 203.5234375 C-53.5682133 201.72836955 -50.86527807 202.37039393 -48.44165039 202.34985352 C-47.17265396 202.33636368 -45.90365753 202.32287384 -44.59620667 202.30897522 C-43.91286318 202.30391527 -43.22951969 202.29885532 -42.52546883 202.29364204 C-40.38444016 202.2772365 -38.24358742 202.25399148 -36.10264587 202.22874451 C-30.01310028 202.15801021 -23.92347691 202.09825806 -17.83374023 202.04663086 C-14.11069199 202.01458525 -10.38783619 201.97323112 -6.6649456 201.92643547 C-5.25258338 201.91054656 -3.84017673 201.89816549 -2.42775154 201.88952827 C13.24902539 202.05670369 13.24902539 202.05670369 26.87890625 195.3046875 C34.07398691 188.01367243 34.90504861 180.8838531 34.88110352 171.02368164 C34.73314449 161.95563086 32.78863547 156.21025721 26.74609375 149.34765625 C20.92291608 144.31168593 16.36162719 142.92964458 8.85571289 142.97753906 C7.58133865 142.96203255 7.58133865 142.96203255 6.28121948 142.94621277 C3.49457529 142.91689624 0.70866095 142.91528797 -2.078125 142.9140625 C-4.01869584 142.89907331 -5.95925396 142.88234461 -7.89979553 142.86395264 C-12.99114585 142.82034992 -18.08232408 142.80029568 -23.17382812 142.78521729 C-28.37575424 142.76562071 -33.57749522 142.72365353 -38.77929688 142.68359375 C-48.97390113 142.60836828 -59.16846379 142.55803038 -69.36328125 142.5234375 C-69.40569848 140.19048975 -69.40421062 137.85641183 -69.36328125 135.5234375 C-66.94740121 133.10755746 -60.90159272 134.07638958 -57.67578125 133.9609375 C-55.93856812 133.89507446 -55.93856812 133.89507446 -54.16625977 133.82788086 C-46.09672638 133.56585305 -38.03845129 133.50067331 -29.96484375 133.53125 C-28.96702377 133.53453812 -27.9692038 133.53782623 -26.94114685 133.54121399 C-21.93939644 133.56052055 -16.93826374 133.59438674 -11.93676758 133.64819336 C-2.99743847 133.71933377 5.83778065 133.61089352 14.734375 132.6640625 C15.46572159 132.58845596 16.19706818 132.51284943 16.95057678 132.43495178 C22.4719736 131.76430816 26.59789466 130.37100808 30.63671875 126.5234375 C31.78140625 125.440625 31.78140625 125.440625 32.94921875 124.3359375 C38.7242008 114.71096742 39.24047973 102.91284518 36.57421875 92.1484375 C34.45002389 86.19677632 31.08982754 81.6010146 25.62756348 78.31462097 C15.62884773 74.12000248 4.87061783 74.93808955 -5.76953125 74.94921875 C-7.94381835 74.93675977 -10.11809541 74.92242173 -12.2923584 74.90629578 C-17.98586128 74.86843107 -23.67919051 74.8531079 -29.37280273 74.84350586 C-38.51300431 74.82368728 -47.65307478 74.76696413 -56.7931366 74.71474266 C-59.98340005 74.6993926 -63.17359773 74.69220703 -66.3638916 74.68659973 C-68.30965203 74.67958639 -70.25541214 74.6724857 -72.20117188 74.6652832 C-73.08947693 74.66581192 -73.97778198 74.66634064 -74.89300537 74.66688538 C-76.11222687 74.66087311 -76.11222687 74.66087311 -77.3560791 74.65473938 C-78.06171242 74.6534821 -78.76734573 74.65222483 -79.49436188 74.65092945 C-81.36328125 74.5234375 -81.36328125 74.5234375 -84.36328125 73.5234375 C-84.69328125 71.2134375 -85.02328125 68.9034375 -85.36328125 66.5234375 C-55.99328125 66.1934375 -26.62328125 65.8634375 3.63671875 65.5234375 C6.96023157 48.90587339 7.19273953 30.21671143 -0.36328125 14.5234375 C-4.37658273 8.72644648 -9.31309647 4.83464521 -16.36328125 3.5234375 C-58.47859433 1.0832871 -98.19183188 11.62670948 -137.93603516 24.43701172 Z M47.63671875 103.5234375 C47.48976563 104.77898437 47.3428125 106.03453125 47.19140625 107.328125 C44.56017764 127.75176229 44.56017764 127.75176229 36.24609375 134.44921875 C34.08887692 135.92467366 31.92872912 137.27047183 29.63671875 138.5234375 C30.19939453 139.1421875 30.19939453 139.1421875 30.7734375 139.7734375 C39.74019481 149.89209562 44.91215779 160.73427034 44.63671875 174.5234375 C43.63387891 183.62958141 41.99947617 190.92619782 36.63671875 198.5234375 C36.96671875 199.5134375 37.29671875 200.5034375 37.63671875 201.5234375 C45.10737372 200.40136284 50.2055294 198.85370952 55.76171875 193.4609375 C61.42035336 184.59574327 62.70589143 174.46805574 63.88671875 164.2109375 C64.0122966 163.16386627 64.0122966 163.16386627 64.14041138 162.09564209 C65.20668318 153.12872482 66.01365285 144.18630376 66.07421875 135.1484375 C66.08420898 134.30756592 66.09419922 133.46669434 66.10449219 132.6003418 C65.9912355 124.60522893 64.4803248 116.5934704 58.88671875 110.5859375 C58.2525 109.87566406 57.61828125 109.16539062 56.96484375 108.43359375 C54.01305553 106.01174066 51.19386701 104.89388472 47.63671875 103.5234375 Z " fill="#03FCFD" transform="translate(333.36328125,233.4765625)"/>
<path d="M0 0 C2 1 2 1 2 1 Z " fill="#0FEFEF" transform="translate(195,606)"/>
<path d="M0 0 C2 1 2 1 2 1 Z " fill="#0DF4F3" transform="translate(331,502)"/>
<path d="M0 0 C2 1 2 1 2 1 Z " fill="#11EBEC" transform="translate(219,238)"/>
<path d="" fill="#2B8D84" transform="translate(0,0)"/>
<path d="" fill="#16E3E2" transform="translate(0,0)"/>
<path d="" fill="#15E6E9" transform="translate(0,0)"/>
<path d="" fill="#15EFF0" transform="translate(0,0)"/>
<path d="" fill="#14F0F0" transform="translate(0,0)"/>
<path d="" fill="#15EEEB" transform="translate(0,0)"/>
<path d="" fill="#12EDED" transform="translate(0,0)"/>
<path d="" fill="#12EBEB" transform="translate(0,0)"/>
<path d="" fill="#14ECEB" transform="translate(0,0)"/>
<path d="" fill="#17EAE9" transform="translate(0,0)"/>
<path d="" fill="#16ECEB" transform="translate(0,0)"/>
<path d="" fill="#0CF4F5" transform="translate(0,0)"/>
<path d="" fill="#1AEAEA" transform="translate(0,0)"/>
<path d="" fill="#17EBE8" transform="translate(0,0)"/>
<path d="" fill="#10F1F1" transform="translate(0,0)"/>
<path d="" fill="#0FF4F3" transform="translate(0,0)"/>
<path d="" fill="#247F7B" transform="translate(0,0)"/>
<path d="" fill="#247271" transform="translate(0,0)"/>
<path d="" fill="#266E6B" transform="translate(0,0)"/>
<path d="" fill="#2B615D" transform="translate(0,0)"/>
<path d="" fill="#2B615C" transform="translate(0,0)"/>
<path d="" fill="#2D605E" transform="translate(0,0)"/>
<path d="" fill="#2D5F5C" transform="translate(0,0)"/>
<path d="" fill="#315E5B" transform="translate(0,0)"/>
<path d="" fill="#345C5A" transform="translate(0,0)"/>
<path d="" fill="#3D5C58" transform="translate(0,0)"/>
<path d="" fill="#405C59" transform="translate(0,0)"/>
<path d="" fill="#4B5E5C" transform="translate(0,0)"/>
<path d="" fill="#4F605E" transform="translate(0,0)"/>
<path d="" fill="#586362" transform="translate(0,0)"/>
<path d="" fill="#5C6465" transform="translate(0,0)"/>
<path d="" fill="#616767" transform="translate(0,0)"/>
<path d="" fill="#666C6B" transform="translate(0,0)"/>
<path d="" fill="#5E6464" transform="translate(0,0)"/>
<path d="" fill="#535F5F" transform="translate(0,0)"/>
<path d="" fill="#707372" transform="translate(0,0)"/>
<path d="" fill="#828384" transform="translate(0,0)"/>
</svg>
