<?xml version="1.0" encoding="UTF-8"?>
<svg version="1.1" xmlns="http://www.w3.org/2000/svg" width="460" height="650">
<path d="M0 0 C0.53882813 0.36996094 1.07765625 0.73992188 1.6328125 1.12109375 C2.4990625 1.67796875 3.3653125 2.23484375 4.2578125 2.80859375 C17.28069227 15.48876616 19.14471329 36.34108975 22.5703125 53.37109375 C23.03722623 55.65854154 23.50502467 57.94580889 23.97363281 60.23291016 C24.98711279 65.1853519 25.99604205 70.13868973 27.00146484 75.09277344 C29.49007414 87.35328016 32.00377648 99.60865109 34.52166271 111.86317444 C35.40944942 116.1852894 36.29366058 120.50811409 37.17487526 124.83157349 C40.11797835 139.26194681 43.14939854 153.66762933 46.38671875 168.03515625 C46.67198425 169.30410736 46.95724976 170.57305847 47.25115967 171.88046265 C50.37824346 191.53363794 50.37824346 191.53363794 60.4921875 207.3828125 C65.07638802 208.41520477 68.58489566 208.35676026 72.64990234 205.8112793 C81.61933302 198.1659495 84.67938178 180.87539626 88.2578125 170.12109375 C88.9708083 167.99911073 89.68452257 165.87736899 90.39892578 163.75585938 C92.16794106 158.49577325 93.92680512 153.23236056 95.68237305 147.96777344 C96.78169866 144.67516193 97.88721908 141.38466779 98.99432373 138.09466553 C103.79346955 123.83129842 108.50178985 109.53914639 113.1640625 95.23046875 C113.56255402 94.00859863 113.96104553 92.78672852 114.37161255 91.52783203 C116.35779851 85.43740062 118.3404364 79.34586526 120.31591797 73.25195312 C135.39364437 26.86459463 135.39364437 26.86459463 149.7578125 18.24609375 C158.39974777 14.86446691 166.23558665 15.52451657 174.6328125 19.12109375 C181.15528735 22.44627701 184.9882612 28.05402975 187.69287109 34.74267578 C190.94170285 46.41990536 188.49505861 59.2486902 185.2578125 70.62109375 C184.86758968 72.05942552 184.47951669 73.49834176 184.09326172 74.93774414 C183.18280124 78.31026617 182.25659114 81.67801214 181.3203125 85.04345703 C179.33031649 92.19763071 177.37221129 99.36049914 175.4140625 106.5234375 C175.22696653 107.20770939 175.03987057 107.89198128 174.84710503 108.59698868 C173.87845725 112.13976828 172.91013055 115.68263541 171.94210815 119.22558594 C171.15231458 122.11594073 170.3616749 125.0060621 169.57034302 127.89599609 C164.63195292 145.9342403 159.75815546 163.98331714 155.1953125 182.12109375 C154.97611145 182.98282196 154.7569104 183.84455017 154.53106689 184.73239136 C148.62450358 208.01989164 146.42383197 230.36015704 146.4453125 254.37109375 C146.44522186 255.92827118 146.44522186 255.92827118 146.44512939 257.51690674 C146.46021633 275.80192534 147.25811071 293.8878427 148.6328125 312.12109375 C153.48794725 377.49434274 153.48794725 377.49434274 148.6328125 408.12109375 C148.50922363 408.92450195 148.38563477 409.72791016 148.25830078 410.55566406 C144.28936264 435.29297306 135.05652557 458.41490779 122.3828125 479.93359375 C112.0809699 497.58013479 109.90524403 514.09089884 109.40234375 534.265625 C109.38390411 534.97428207 109.36546448 535.68293915 109.34646606 536.41307068 C109.25721469 539.94795016 109.18664372 543.48151583 109.14941406 547.01733398 C108.95193787 557.4252269 108.09324669 565.63179719 100.67578125 573.33984375 C73.8721597 596.70973176 6.81489136 587.45356183 -26.01635742 585.55444336 C-62.66778878 582.96204388 -62.66778878 582.96204388 -75.3671875 572.12109375 C-83.64980445 561.95922758 -82.70719514 549.40657789 -82.8671875 536.99609375 C-83.13787252 516.27411459 -84.41513427 499.49943825 -96.49755859 481.95776367 C-133.61435397 427.51933906 -141.55700927 336.52982851 -129.62109375 272.65234375 C-127.13404098 260.99489925 -122.75483957 250.89658065 -113.3671875 243.12109375 C-105.15120791 238.00962553 -97.0937967 235.00658645 -87.3671875 236.12109375 C-83.283998 237.2449524 -79.32608542 238.62059775 -75.3671875 240.12109375 C-75.11195313 239.06921875 -75.11195313 239.06921875 -74.8515625 237.99609375 C-71.69475202 225.63751655 -67.31990563 217.59805072 -56.04296875 210.69921875 C-47.60984813 206.39692431 -38.29982661 205.62015028 -29.109375 207.9453125 C-26.47316621 208.91144351 -23.92472747 209.96471429 -21.3671875 211.12109375 C-18.46440675 212.50833988 -18.46440675 212.50833988 -15.3671875 213.12109375 C-16.82235963 203.59977528 -18.28135967 194.0790458 -19.7421875 184.55859375 C-19.90883156 183.47217653 -19.90883156 183.47217653 -20.07884216 182.36381149 C-23.21116575 161.94570087 -26.39977168 141.53762045 -29.66488647 121.14033031 C-31.58566785 109.13708519 -33.48197046 97.12997291 -35.3671875 85.12109375 C-35.62429504 83.48675385 -35.62429504 83.48675385 -35.88659668 81.81939697 C-36.81270394 75.91883218 -37.72136486 70.0161273 -38.60046387 64.10836792 C-38.85371564 62.41951638 -39.11192267 60.73139721 -39.37609863 59.04421997 C-40.79423206 49.95522031 -41.58140049 41.05063048 -41.625 31.84375 C-41.63077057 30.96274628 -41.63654114 30.08174255 -41.64248657 29.17404175 C-41.58994555 22.82685664 -40.70379804 17.62823295 -37.3671875 12.12109375 C-36.7690625 11.04859375 -36.1709375 9.97609375 -35.5546875 8.87109375 C-26.89631596 -2.01371619 -12.95546406 -7.83290609 0 0 Z M-25.6796875 14.37109375 C-32.99689802 22.79089763 -31.0411613 36.85947491 -30.3671875 47.12109375 C-29.31663525 57.51483678 -27.66406115 67.83248341 -26.04557037 78.14989853 C-25.54801333 81.34044401 -25.06347838 84.53291646 -24.57877731 87.72543621 C-21.80796605 105.96574885 -18.88922537 124.18200784 -15.91796875 142.390625 C-15.70319728 143.70774223 -15.70319728 143.70774223 -15.48408699 145.0514679 C-14.09352465 153.57516227 -12.69731143 162.097797 -11.2710886 170.6156044 C-7.75863483 191.61336541 -4.76595312 212.62979468 -2.16954994 233.76051998 C-1.32744324 240.56100712 -0.36808249 247.34208047 0.6328125 254.12109375 C1.32217896 254.22680695 2.01154541 254.33252014 2.72180176 254.44143677 C67.71294315 264.42788437 67.71294315 264.42788437 91.6328125 287.12109375 C95.60432643 291.31360987 95.60432643 291.31360987 100.6328125 293.12109375 C100.6328125 293.78109375 100.6328125 294.44109375 100.6328125 295.12109375 C102.1836032 296.68973457 102.1836032 296.68973457 104.1953125 298.30859375 C106.9581993 300.65389133 109.59961007 303.0293878 112.1328125 305.62109375 C114.40293833 307.93184823 116.72405744 310.09011017 119.1953125 312.18359375 C124.05294727 316.35002357 128.49470351 320.93274832 132.97290039 325.49829102 C133.56063232 326.09440186 134.14836426 326.6905127 134.75390625 327.3046875 C135.2842749 327.84665771 135.81464355 328.38862793 136.36108398 328.94702148 C137.46680157 330.23414922 137.46680157 330.23414922 138.6328125 330.12109375 C138.8598578 323.07217824 138.47958838 316.09307479 137.9765625 309.06640625 C137.87652168 307.66692245 137.87652168 307.66692245 137.77445984 306.23916626 C137.63295609 304.26521218 137.4913675 302.29126418 137.34970093 300.31732178 C133.85010006 250.76155539 137.30040788 206.90521404 150.1953125 158.74609375 C150.727505 156.74189855 151.25827875 154.73733156 151.78884792 152.73270607 C156.88554527 133.47733355 162.1120579 114.25735147 167.3710022 95.04574585 C168.25412215 91.81948756 169.13682258 88.59311492 170.0189209 85.36657715 C170.42143603 83.89426339 170.82417867 82.42201181 171.22717285 80.9498291 C172.44096261 76.51112863 173.6358948 72.06774514 174.8203125 67.62109375 C175.10011963 66.60128418 175.37992676 65.58147461 175.66821289 64.53076172 C178.27208301 54.63723006 180.38662152 44.62871179 175.6328125 35.12109375 C173.31809928 31.61168983 171.49078125 29.71294032 167.6328125 28.12109375 C161.97992561 27.29431097 156.48758477 27.65588044 151.5 30.5703125 C145.2113792 35.79328835 142.24081367 43.69284346 139.38549805 51.13525391 C139.08518771 51.91387094 138.78487738 52.69248798 138.47546673 53.49469948 C134.735286 63.31725524 131.45132252 73.29234197 128.15234375 83.26953125 C127.45162933 85.37730027 126.75050382 87.48493266 126.04899597 89.59243774 C124.21334662 95.11073529 122.38308792 100.63080531 120.55407715 106.15130615 C118.73127974 111.65010173 116.90352638 117.14724878 115.07617188 122.64453125 C114.35608341 124.81169783 113.63602104 126.97887309 112.91598511 129.14605713 C111.49696227 133.41689826 110.07719055 137.68748952 108.65701294 141.95794678 C105.74017586 150.733077 102.82589381 159.5086952 99.96170139 168.30117607 C98.8812303 171.61611874 97.79434885 174.92894172 96.70679283 178.2415657 C96.2180213 179.73676335 95.73251944 181.23303501 95.25077248 182.73051071 C86.15108643 211.01376792 86.15108643 211.01376792 75.5078125 216.49609375 C69.19639896 219.01433722 62.85163822 219.11150167 56.3828125 217.12109375 C44.60424719 208.55486443 41.75611917 194.88113158 38.5703125 181.30859375 C38.28559082 180.11016846 38.00086914 178.91174316 37.70751953 177.67700195 C31.04493402 149.27878375 25.3447754 120.63964941 19.58371735 92.04680061 C19.14570919 89.87303345 18.70715195 87.69937763 18.26849365 85.52574158 C16.99898514 79.23211208 15.73235 72.93798336 14.48064518 66.64078617 C10.34998155 34.63275511 10.34998155 34.63275511 -6.3671875 9.12109375 C-13.24839275 5.68049113 -20.84501684 9.14918005 -25.6796875 14.37109375 Z M-59.3671875 227.12109375 C-63.52274667 233.0557102 -65.22270496 239.84798915 -64.05593872 247.03952026 C-62.86412305 252.75255281 -61.28154182 258.3692174 -59.7421875 263.99609375 C-58.98629772 266.83025027 -58.23640356 269.66595101 -57.4868927 272.50180054 C-56.95606978 274.50916077 -56.42330383 276.51600808 -55.88871765 278.52236938 C-53.79808656 286.39379219 -51.81895784 294.28945012 -49.87890625 302.19921875 C-49.59061951 303.37118805 -49.30233276 304.54315735 -49.00531006 305.75064087 C-47.86489867 310.38938026 -46.72527363 315.02825807 -45.59857178 319.67034912 C-44.81154977 322.90844156 -44.01414879 326.14382737 -43.21484375 329.37890625 C-42.98600998 330.33347717 -42.75717621 331.2880481 -42.52140808 332.27154541 C-40.26707647 341.3268387 -37.79217012 350.17524584 -29.43359375 355.30859375 C-22.50714416 358.86441814 -15.48045726 359.44044443 -8.0546875 357.05859375 C-1.52258756 352.34940542 2.64066266 346.3280699 4.16796875 338.3125 C4.96820482 332.81844227 5.69526262 327.62331888 4.6328125 322.12109375 C2.14128435 319.1552747 -0.92092869 317.79427737 -4.3671875 316.12109375 C-18.35096321 307.87269271 -32.21008286 297.28296356 -36.953125 281.125 C-38.28985717 274.65572074 -37.73225361 268.8742713 -34.3671875 263.12109375 C-27.79642772 255.73333474 -19.92390755 253.76263283 -10.3671875 253.12109375 C-10.04535578 244.43163722 -10.53901326 235.99535055 -16.3671875 229.12109375 C-23.47053062 221.82160308 -29.12733932 218.10757743 -39.3671875 217.68359375 C-47.67338121 217.91374018 -53.5151289 221.26903515 -59.3671875 227.12109375 Z M-110.86328125 256.1875 C-115.36491234 261.9753114 -117.80332135 268.34428544 -117.68457031 275.71533203 C-116.99602767 280.9344853 -114.73690923 285.72432295 -112.7421875 290.55859375 C-112.25435791 291.76636475 -111.76652832 292.97413574 -111.26391602 294.21850586 C-109.93289584 297.50445943 -108.58076854 300.78132126 -107.22235107 304.05603027 C-106.35500706 306.15050728 -105.49354337 308.24732383 -104.63330078 310.34472656 C-96.35172974 330.53811711 -96.35172974 330.53811711 -86.9921875 350.24609375 C-86.63632568 350.96676025 -86.28046387 351.68742676 -85.91381836 352.42993164 C-82.44358302 358.95315066 -77.30474129 363.38032113 -70.9921875 367.12109375 C-65.33705777 368.68112954 -60.24465568 368.72500696 -55.01953125 365.8125 C-51.79339672 363.46462351 -49.59621669 361.46463753 -47.3671875 358.12109375 C-46.93367584 352.91895382 -47.28278758 349.8809935 -49.58282471 345.13734436 C-50.5534279 342.64235188 -50.90455814 340.25974232 -51.29199219 337.61108398 C-52.26384049 331.48229476 -53.64378711 325.53607938 -55.1953125 319.53125 C-55.46680115 318.46603622 -55.73828979 317.40082245 -56.01800537 316.30332947 C-56.59051453 314.0615549 -57.16543657 311.82039526 -57.74267578 309.57983398 C-58.60661448 306.22465496 -59.46214299 302.86741952 -60.31640625 299.50976562 C-61.70241022 294.08071668 -63.1124584 288.65845282 -64.54321289 283.24102783 C-65.08816317 281.17760389 -65.62972428 279.11328159 -66.16772461 277.04803467 C-66.92164927 274.17077482 -67.69575675 271.2997534 -68.4765625 268.4296875 C-68.69475647 267.58720963 -68.91295044 266.74473175 -69.13775635 265.87672424 C-71.0045742 259.16428132 -73.727916 253.45049896 -79.9296875 249.74609375 C-91.32759501 244.35799202 -102.3526237 247.00546808 -110.86328125 256.1875 Z M-26.2421875 269.37109375 C-28.01384435 273.7018105 -28.08372139 276.97149209 -26.59375 281.44140625 C-18.0320167 300.81156883 3.81864993 310.49098609 22.1953125 318.12109375 C45.43093393 327.79578471 57.94723435 341.16313357 67.6328125 364.12109375 C68.41398437 365.93480469 68.41398437 365.93480469 69.2109375 367.78515625 C73.07655472 377.19432343 73.07655472 377.19432343 71.6328125 382.12109375 C69.3203125 382.80859375 69.3203125 382.80859375 66.6328125 383.12109375 C63.94040767 381.03295023 62.8884688 378.76862279 61.6953125 375.62890625 C61.18871094 374.32373047 61.18871094 374.32373047 60.671875 372.9921875 C60.32898438 372.08597656 59.98609375 371.17976563 59.6328125 370.24609375 C56.70571176 362.40672625 56.70571176 362.40672625 52.6328125 355.12109375 C47.10837444 357.94689494 47.10837444 357.94689494 42.6328125 362.12109375 C42.6328125 362.78109375 42.6328125 363.44109375 42.6328125 364.12109375 C41.78589844 364.47107422 41.78589844 364.47107422 40.921875 364.828125 C23.58752182 374.61937227 13.57911984 400.43528715 8.40454102 418.35766602 C5.83421217 427.85012624 4.42109142 437.33133039 3.6328125 447.12109375 C3.54821777 448.1584668 3.54821777 448.1584668 3.46191406 449.21679688 C3.14665718 453.1826911 2.87196364 457.14992617 2.6328125 461.12109375 C0.2896912 460.86548052 -2.04562153 460.52838603 -4.3671875 460.12109375 C-11.47594646 445.90357583 -2.66216065 419.45237306 1.97998047 405.47265625 C7.0224508 391.36194322 14.68603924 378.33182162 24.6328125 367.12109375 C25.91478516 365.65929687 25.91478516 365.65929687 27.22265625 364.16796875 C32.9867508 357.69101113 39.05018079 351.77558867 45.6328125 346.12109375 C40.37180943 336.21601306 27.83327819 330.08048504 17.6328125 326.12109375 C16.6428125 326.45109375 15.6528125 326.78109375 14.6328125 327.12109375 C14.55933594 328.26384766 14.55933594 328.26384766 14.484375 329.4296875 C13.64857455 340.97237991 12.35862412 352.51374065 3.63671875 361.08203125 C-3.46821002 366.58868682 -10.43368718 368.20658179 -19.3671875 368.12109375 C-26.42653875 367.08801796 -32.41879579 365.04162465 -38.3671875 361.12109375 C-38.7796875 361.78496094 -39.1921875 362.44882812 -39.6171875 363.1328125 C-44.42089361 370.47776492 -48.6792358 374.36311186 -56.8671875 377.43359375 C-66.12571371 379.25223283 -73.74856718 377.69825137 -81.75390625 372.6015625 C-102.76538966 355.77037422 -111.0027374 320.37851074 -120.3671875 296.12109375 C-120.6971875 296.12109375 -121.0271875 296.12109375 -121.3671875 296.12109375 C-121.8077758 332.67656541 -121.8077758 332.67656541 -119.3671875 369.12109375 C-119.17382812 370.94471436 -119.17382812 370.94471436 -118.9765625 372.80517578 C-115.58228713 404.04115203 -109.77441961 434.94175113 -95.3671875 463.12109375 C-94.86316406 464.11496094 -94.35914063 465.10882813 -93.83984375 466.1328125 C-91.45603597 470.66647344 -88.89259521 474.86269681 -85.8671875 478.99609375 C-73.98734336 495.63313211 -72.5794969 513.79011895 -72.23046875 533.53125 C-72.18647918 535.55229047 -72.14073649 537.57328316 -72.09429932 539.5942688 C-72.05542496 541.58336014 -72.03896996 543.57284918 -72.02294922 545.56225586 C-71.86586553 552.83936916 -71.43529218 557.99698653 -67.3671875 564.12109375 C-55.69242439 574.54776791 -34.14571626 574.49037587 -19.16015625 574.09375 C-16.3671875 574.12109375 -16.3671875 574.12109375 -13.3671875 575.12109375 C-11.81160557 575.21301766 -10.25238668 575.24899995 -8.6940918 575.25048828 C-7.74426926 575.25364044 -6.79444672 575.2567926 -5.81584167 575.26004028 C-4.26924614 575.25700394 -4.26924614 575.25700394 -2.69140625 575.25390625 C-1.07804131 575.25534134 -1.07804131 575.25534134 0.56791687 575.25680542 C2.85867369 575.2574873 5.14943242 575.25563247 7.44018555 575.25146484 C10.86576994 575.24621564 14.29121713 575.25135711 17.71679688 575.2578125 C44.62079521 575.29784114 44.62079521 575.29784114 71.3828125 572.80859375 C72.2490625 572.70353516 73.1153125 572.59847656 74.0078125 572.49023438 C81.22616967 571.50149234 88.91650209 569.90531193 94.1328125 564.55859375 C94.8753125 563.35203125 94.8753125 563.35203125 95.6328125 562.12109375 C96.2928125 561.13109375 96.9528125 560.14109375 97.6328125 559.12109375 C99.00176721 554.42261831 98.80306266 549.57162724 98.84375 544.71875 C98.87184849 542.83918445 98.9005131 540.95962729 98.9296875 539.08007812 C98.97065535 536.14478059 99.0075765 533.20963461 99.03417969 530.27416992 C99.26535214 506.75237317 104.56393751 488.95264673 116.11328125 468.58203125 C134.71254616 435.75979906 140.5676044 400.92468486 140.9453125 363.49609375 C140.96311768 362.36389404 140.98092285 361.23169434 140.99926758 360.06518555 C140.99024114 350.87002088 139.45644972 345.59577192 133.0703125 338.68359375 C132.28527344 337.81863281 131.50023437 336.95367187 130.69140625 336.0625 C128.86191573 333.89239496 128.86191573 333.89239496 126.6328125 334.12109375 C126.6328125 333.46109375 126.6328125 332.80109375 126.6328125 332.12109375 C125.24989231 330.72286404 125.24989231 330.72286404 123.3828125 329.24609375 C119.60250172 326.04221334 116.1060987 322.64799186 112.6328125 319.12109375 C108.66244939 315.09977278 104.62918973 311.24808837 100.31640625 307.58984375 C98.70940419 306.18791156 97.23260399 304.72250661 95.7578125 303.18359375 C93.88717551 300.88893529 93.88717551 300.88893529 91.6328125 301.12109375 C91.6328125 300.46109375 91.6328125 299.80109375 91.6328125 299.12109375 C89.94757896 297.37476413 88.08596892 295.88065507 86.23046875 294.31640625 C84.33190902 292.71190916 82.47464726 291.08864257 80.62890625 289.42578125 C65.16943686 275.65464554 48.15776862 271.5478612 28.0703125 268.49609375 C26.77673828 268.29242188 25.48316406 268.08875 24.15039062 267.87890625 C20.31321171 267.27880609 16.47359507 266.69763233 12.6328125 266.12109375 C11.39031738 265.929104 10.14782227 265.73711426 8.86767578 265.53930664 C2.43284085 264.57136027 -3.85623462 263.77710945 -10.3671875 263.80859375 C-11.06457031 263.79248047 -11.76195312 263.77636719 -12.48046875 263.75976562 C-18.17313574 263.7544053 -22.52840925 264.91455985 -26.2421875 269.37109375 Z " fill="#FA57FA" transform="translate(223.3671875,31.87890625)"/>
<path d="M0 0 C0.66 0.33 1.32 0.66 2 1 C1.071875 1.845625 0.14375 2.69125 -0.8125 3.5625 C-6.00995552 8.85825255 -7.16183651 13.15762305 -7.1875 20.4375 C-7.13971265 22.29210418 -7.0821704 24.14660088 -7 26 C-9.47691477 21.62839346 -9.5259048 17.9251402 -9 13 C-7.21329721 7.14358532 -4.41585697 4.02333635 0 0 Z " fill="#F35CF5" transform="translate(194,289)"/>
<path d="M0 0 C0.66 0.33 1.32 0.66 2 1 C-2.625 6.875 -2.625 6.875 -6 8 C-4.55746343 4.63408134 -2.66735273 2.48952921 0 0 Z " fill="#E958E9" transform="translate(194,34)"/>
<path d="M0 0 C1.485 0.99 1.485 0.99 3 2 C3.29296875 4.1640625 3.29296875 4.1640625 3.1875 6.625 C3.16042969 7.44226563 3.13335937 8.25953125 3.10546875 9.1015625 C3.07066406 9.72804688 3.03585938 10.35453125 3 11 C1.0210244 7.36383344 0.4748935 4.11574371 0 0 Z " fill="#EC5CEE" transform="translate(103,455)"/>
<path d="M0 0 C0.33 0 0.66 0 1 0 C1 1.98 1 3.96 1 6 C-1.375 6.1875 -1.375 6.1875 -4 6 C-4.66 5.01 -5.32 4.02 -6 3 C-3.525 3.495 -3.525 3.495 -1 4 C-0.67 2.68 -0.34 1.36 0 0 Z " fill="#F05DF2" transform="translate(149,268)"/>
<path d="" fill="#EE5FF0" transform="translate(0,0)"/>
<path d="M0 0 C0.66 0.66 1.32 1.32 2 2 C1.34 2 0.68 2 0 2 C0 1.34 0 0.68 0 0 Z " fill="#F05EF3" transform="translate(141,284)"/>
<path d="" fill="#D95ADB" transform="translate(0,0)"/>
<path d="M0 0 C2 1 2 1 2 1 Z " fill="#DA5EDC" transform="translate(108,482)"/>
<path d="M0 0 C2 1 2 1 2 1 Z " fill="#D960DC" transform="translate(106,481)"/>
<path d="" fill="#D95DDD" transform="translate(0,0)"/>
<path d="" fill="#DC5EDE" transform="translate(0,0)"/>
<path d="" fill="#E85FE8" transform="translate(0,0)"/>
<path d="M0 0 C2 1 2 1 2 1 Z " fill="#EC60ED" transform="translate(106,409)"/>
<path d="" fill="#EB60ED" transform="translate(0,0)"/>
<path d="" fill="#E065E3" transform="translate(0,0)"/>
<path d="" fill="#F35DF2" transform="translate(0,0)"/>
<path d="" fill="#EE5FF1" transform="translate(0,0)"/>
<path d="" fill="#F260F5" transform="translate(0,0)"/>
<path d="M0 0 C2 1 2 1 2 1 Z " fill="#F15FF2" transform="translate(152,301)"/>
<path d="" fill="#EC5DEE" transform="translate(0,0)"/>
<path d="M0 0 C2 1 2 1 2 1 Z " fill="#F060F2" transform="translate(148,290)"/>
<path d="" fill="#EC60ED" transform="translate(0,0)"/>
<path d="M0 0 C2 1 2 1 2 1 Z " fill="#F25BF3" transform="translate(210,283)"/>
<path d="M0 0 C2 1 2 1 2 1 Z " fill="#F25EF3" transform="translate(207,283)"/>
<path d="" fill="#EC5FEC" transform="translate(0,0)"/>
<path d="M0 0 C2 1 2 1 2 1 Z " fill="#EC60EF" transform="translate(134,280)"/>
<path d="M0 0 C2 1 2 1 2 1 Z " fill="#D368D6" transform="translate(106,273)"/>
<path d="M0 0 C2 1 2 1 2 1 Z " fill="#CF67D3" transform="translate(104,272)"/>
<path d="" fill="#F25EF4" transform="translate(0,0)"/>
<path d="M0 0 C2 1 2 1 2 1 Z " fill="#EC61EC" transform="translate(173,253)"/>
<path d="" fill="#EC5CEB" transform="translate(0,0)"/>
<path d="" fill="#5E4161" transform="translate(0,0)"/>
<path d="" fill="#DB58DD" transform="translate(0,0)"/>
<path d="" fill="#D857D7" transform="translate(0,0)"/>
<path d="" fill="#D958DB" transform="translate(0,0)"/>
<path d="" fill="#D759D5" transform="translate(0,0)"/>
<path d="" fill="#D857D7" transform="translate(0,0)"/>
<path d="" fill="#D258D5" transform="translate(0,0)"/>
<path d="" fill="#D859D6" transform="translate(0,0)"/>
<path d="" fill="#CE56CE" transform="translate(0,0)"/>
<path d="" fill="#D357D7" transform="translate(0,0)"/>
<path d="" fill="#704A74" transform="translate(0,0)"/>
<path d="" fill="#D558D4" transform="translate(0,0)"/>
<path d="" fill="#DB5DD9" transform="translate(0,0)"/>
<path d="" fill="#815685" transform="translate(0,0)"/>
<path d="" fill="#825687" transform="translate(0,0)"/>
<path d="" fill="#DE5DDE" transform="translate(0,0)"/>
<path d="" fill="#DF5DE2" transform="translate(0,0)"/>
<path d="" fill="#E45EE4" transform="translate(0,0)"/>
<path d="" fill="#626373" transform="translate(0,0)"/>
<path d="" fill="#E35DE3" transform="translate(0,0)"/>
<path d="" fill="#DE5CE0" transform="translate(0,0)"/>
<path d="" fill="#E85BE8" transform="translate(0,0)"/>
<path d="" fill="#D45DD3" transform="translate(0,0)"/>
<path d="" fill="#CD5ECD" transform="translate(0,0)"/>
<path d="" fill="#98629E" transform="translate(0,0)"/>
<path d="" fill="#E65CE9" transform="translate(0,0)"/>
<path d="" fill="#DE5EE0" transform="translate(0,0)"/>
<path d="" fill="#DF5EE1" transform="translate(0,0)"/>
<path d="" fill="#6F7283" transform="translate(0,0)"/>
<path d="" fill="#E75DE8" transform="translate(0,0)"/>
<path d="" fill="#737486" transform="translate(0,0)"/>
<path d="" fill="#DB5FDD" transform="translate(0,0)"/>
<path d="" fill="#757689" transform="translate(0,0)"/>
<path d="" fill="#D960DB" transform="translate(0,0)"/>
<path d="" fill="#E95FE5" transform="translate(0,0)"/>
<path d="" fill="#DD60DC" transform="translate(0,0)"/>
<path d="" fill="#E75BE9" transform="translate(0,0)"/>
<path d="" fill="#D860DC" transform="translate(0,0)"/>
<path d="" fill="#DE60E0" transform="translate(0,0)"/>
<path d="" fill="#E95DEA" transform="translate(0,0)"/>
<path d="" fill="#E05FE2" transform="translate(0,0)"/>
<path d="" fill="#E85DE8" transform="translate(0,0)"/>
<path d="" fill="#E85DE8" transform="translate(0,0)"/>
<path d="" fill="#DB62E0" transform="translate(0,0)"/>
<path d="" fill="#EA5FE8" transform="translate(0,0)"/>
<path d="" fill="#E95DE9" transform="translate(0,0)"/>
<path d="" fill="#EC5EEC" transform="translate(0,0)"/>
<path d="" fill="#8A87A1" transform="translate(0,0)"/>
<path d="" fill="#EA5EED" transform="translate(0,0)"/>
<path d="" fill="#EA5FEE" transform="translate(0,0)"/>
<path d="" fill="#8C89A2" transform="translate(0,0)"/>
<path d="" fill="#E362E3" transform="translate(0,0)"/>
<path d="" fill="#F25DF2" transform="translate(0,0)"/>
<path d="" fill="#EE5EED" transform="translate(0,0)"/>
<path d="" fill="#E25FE4" transform="translate(0,0)"/>
<path d="" fill="#F35CF1" transform="translate(0,0)"/>
<path d="" fill="#EF5EEF" transform="translate(0,0)"/>
<path d="" fill="#EF60F1" transform="translate(0,0)"/>
<path d="" fill="#F35EF3" transform="translate(0,0)"/>
<path d="" fill="#F05FF0" transform="translate(0,0)"/>
<path d="" fill="#F263F1" transform="translate(0,0)"/>
<path d="" fill="#EA61EC" transform="translate(0,0)"/>
<path d="" fill="#F05EF2" transform="translate(0,0)"/>
<path d="" fill="#F160F1" transform="translate(0,0)"/>
<path d="" fill="#F25FF5" transform="translate(0,0)"/>
<path d="" fill="#F460F4" transform="translate(0,0)"/>
<path d="" fill="#F35DF5" transform="translate(0,0)"/>
<path d="" fill="#EE5EEF" transform="translate(0,0)"/>
<path d="" fill="#EA5CEE" transform="translate(0,0)"/>
<path d="" fill="#F15FF0" transform="translate(0,0)"/>
<path d="" fill="#EE60F0" transform="translate(0,0)"/>
<path d="" fill="#F65CF6" transform="translate(0,0)"/>
<path d="" fill="#EC5FF0" transform="translate(0,0)"/>
<path d="" fill="#ED5FEF" transform="translate(0,0)"/>
<path d="" fill="#F45DF5" transform="translate(0,0)"/>
<path d="" fill="#EE60EF" transform="translate(0,0)"/>
<path d="" fill="#F05EEE" transform="translate(0,0)"/>
<path d="" fill="#ED5FF0" transform="translate(0,0)"/>
<path d="" fill="#DE66E2" transform="translate(0,0)"/>
<path d="" fill="#F061F3" transform="translate(0,0)"/>
<path d="" fill="#EE5DF0" transform="translate(0,0)"/>
<path d="" fill="#F161EE" transform="translate(0,0)"/>
<path d="" fill="#F05EF2" transform="translate(0,0)"/>
<path d="" fill="#F25FF2" transform="translate(0,0)"/>
<path d="" fill="#EF61EE" transform="translate(0,0)"/>
<path d="" fill="#E95EEC" transform="translate(0,0)"/>
<path d="" fill="#F261F4" transform="translate(0,0)"/>
<path d="" fill="#F162F4" transform="translate(0,0)"/>
<path d="" fill="#ED61F1" transform="translate(0,0)"/>
<path d="" fill="#EE5FF2" transform="translate(0,0)"/>
<path d="" fill="#F15EF3" transform="translate(0,0)"/>
<path d="" fill="#EB5DEC" transform="translate(0,0)"/>
<path d="" fill="#EE60EE" transform="translate(0,0)"/>
<path d="" fill="#F55DF5" transform="translate(0,0)"/>
<path d="" fill="#F360F3" transform="translate(0,0)"/>
<path d="" fill="#F15AF2" transform="translate(0,0)"/>
<path d="" fill="#EF5EF0" transform="translate(0,0)"/>
<path d="" fill="#F15BF5" transform="translate(0,0)"/>
<path d="" fill="#F35CF3" transform="translate(0,0)"/>
<path d="" fill="#F260F2" transform="translate(0,0)"/>
<path d="" fill="#F55CF4" transform="translate(0,0)"/>
<path d="" fill="#F063F3" transform="translate(0,0)"/>
<path d="" fill="#F05EF0" transform="translate(0,0)"/>
<path d="" fill="#EC61ED" transform="translate(0,0)"/>
<path d="" fill="#EC62F0" transform="translate(0,0)"/>
<path d="" fill="#EF61EF" transform="translate(0,0)"/>
<path d="" fill="#F060F3" transform="translate(0,0)"/>
<path d="" fill="#F65EF3" transform="translate(0,0)"/>
<path d="" fill="#F262F2" transform="translate(0,0)"/>
<path d="" fill="#D566DA" transform="translate(0,0)"/>
<path d="" fill="#72A89B" transform="translate(0,0)"/>
<path d="" fill="#D267D8" transform="translate(0,0)"/>
<path d="" fill="#D069D5" transform="translate(0,0)"/>
<path d="" fill="#C966D1" transform="translate(0,0)"/>
<path d="" fill="#F161F2" transform="translate(0,0)"/>
<path d="" fill="#EB5FEC" transform="translate(0,0)"/>
<path d="" fill="#EA5FEB" transform="translate(0,0)"/>
<path d="" fill="#E160E3" transform="translate(0,0)"/>
<path d="" fill="#E960EC" transform="translate(0,0)"/>
<path d="" fill="#F05CF0" transform="translate(0,0)"/>
<path d="" fill="#F25EF2" transform="translate(0,0)"/>
<path d="" fill="#EB60EC" transform="translate(0,0)"/>
<path d="" fill="#EE5DF1" transform="translate(0,0)"/>
<path d="" fill="#F05DF0" transform="translate(0,0)"/>
<path d="" fill="#EF5DF1" transform="translate(0,0)"/>
<path d="" fill="#DD62DF" transform="translate(0,0)"/>
<path d="" fill="#EF5FF0" transform="translate(0,0)"/>
<path d="" fill="#EE5CF1" transform="translate(0,0)"/>
<path d="" fill="#A66AAE" transform="translate(0,0)"/>
<path d="" fill="#EF5EF1" transform="translate(0,0)"/>
<path d="" fill="#F261F0" transform="translate(0,0)"/>
<path d="" fill="#A168A8" transform="translate(0,0)"/>
<path d="" fill="#609887" transform="translate(0,0)"/>
<path d="" fill="#EA5FED" transform="translate(0,0)"/>
<path d="" fill="#EB60EB" transform="translate(0,0)"/>
<path d="" fill="#797889" transform="translate(0,0)"/>
<path d="" fill="#EB60EB" transform="translate(0,0)"/>
<path d="" fill="#E75DE7" transform="translate(0,0)"/>
<path d="" fill="#747585" transform="translate(0,0)"/>
<path d="" fill="#E257E1" transform="translate(0,0)"/>
<path d="" fill="#906198" transform="translate(0,0)"/>
<path d="" fill="#E55FE6" transform="translate(0,0)"/>
<path d="" fill="#E65FE7" transform="translate(0,0)"/>
<path d="" fill="#E961EA" transform="translate(0,0)"/>
<path d="" fill="#EE5CEE" transform="translate(0,0)"/>
<path d="" fill="#676976" transform="translate(0,0)"/>
<path d="" fill="#EE5FEE" transform="translate(0,0)"/>
<path d="" fill="#E85EE9" transform="translate(0,0)"/>
<path d="" fill="#DF5BDF" transform="translate(0,0)"/>
<path d="" fill="#ED5EEF" transform="translate(0,0)"/>
<path d="" fill="#EC5EED" transform="translate(0,0)"/>
<path d="" fill="#F15FEE" transform="translate(0,0)"/>
<path d="" fill="#4B6F66" transform="translate(0,0)"/>
<path d="" fill="#EB5DEA" transform="translate(0,0)"/>
<path d="" fill="#605D6F" transform="translate(0,0)"/>
<path d="" fill="#496C65" transform="translate(0,0)"/>
<path d="" fill="#486D62" transform="translate(0,0)"/>
<path d="" fill="#EB5DE9" transform="translate(0,0)"/>
<path d="" fill="#EB5CE9" transform="translate(0,0)"/>
<path d="" fill="#EC5DEB" transform="translate(0,0)"/>
<path d="" fill="#815384" transform="translate(0,0)"/>
<path d="" fill="#EA5BE8" transform="translate(0,0)"/>
<path d="" fill="#EB5CE9" transform="translate(0,0)"/>
<path d="" fill="#48655F" transform="translate(0,0)"/>
<path d="" fill="#EC5CEC" transform="translate(0,0)"/>
<path d="" fill="#ED5BEB" transform="translate(0,0)"/>
<path d="" fill="#EA5EE9" transform="translate(0,0)"/>
<path d="" fill="#EB5CE9" transform="translate(0,0)"/>
<path d="" fill="#E85EE9" transform="translate(0,0)"/>
<path d="" fill="#EA5DE9" transform="translate(0,0)"/>
<path d="" fill="#EA60E8" transform="translate(0,0)"/>
<path d="" fill="#E75BE6" transform="translate(0,0)"/>
<path d="" fill="#5B4E64" transform="translate(0,0)"/>
<path d="" fill="#445A58" transform="translate(0,0)"/>
<path d="" fill="#445957" transform="translate(0,0)"/>
<path d="" fill="#EB5FE8" transform="translate(0,0)"/>
<path d="" fill="#E05DE1" transform="translate(0,0)"/>
<path d="" fill="#EA5BEA" transform="translate(0,0)"/>
<path d="" fill="#7B497C" transform="translate(0,0)"/>
<path d="" fill="#58495F" transform="translate(0,0)"/>
<path d="" fill="#E55CE8" transform="translate(0,0)"/>
<path d="" fill="#DF5ADF" transform="translate(0,0)"/>
<path d="" fill="#514056" transform="translate(0,0)"/>
<path d="" fill="#E55FE1" transform="translate(0,0)"/>
<path d="" fill="#E55DE4" transform="translate(0,0)"/>
<path d="" fill="#E55CE3" transform="translate(0,0)"/>
<path d="" fill="#6B3F6D" transform="translate(0,0)"/>
<path d="" fill="#CB55C9" transform="translate(0,0)"/>
<path d="" fill="#E45BE3" transform="translate(0,0)"/>
<path d="" fill="#493B4F" transform="translate(0,0)"/>
<path d="" fill="#CE53CC" transform="translate(0,0)"/>
<path d="" fill="#CD55CE" transform="translate(0,0)"/>
<path d="" fill="#5A385D" transform="translate(0,0)"/>
</svg>
