<?xml version="1.0" encoding="UTF-8"?>
<svg xmlns="http://www.w3.org/2000/svg"
     width="800" height="800" viewBox="0 0 800 800" preserveAspectRatio="none">

  <!-- Define a glow filter -->
  <defs>
    <filter id="neon-glow" x="-50%" y="-50%" width="200%" height="200%">
      <!-- blur the graphics -->
      <feGaussianBlur in="SourceGraphic" stdDeviation="4" result="blurred"/>
      <!-- boost the color -->
      <feColorMatrix in="blurred" type="matrix"
        values="
          1 0 0 0 0  
          0 1 0 0 0  
          0 0 1 0 0  
          0 0 0 18 -7" result="glow"/>
      <!-- layer original on top -->
      <feMerge>
        <feMergeNode in="glow"/>
        <feMergeNode in="SourceGraphic"/>
      </feMerge>
    </filter>

    <!-- Flicker animation -->
    <style>
      <![CDATA[
      .doodle * {
        filter: url(#neon-glow);
        stroke:rgb(187, 241, 219);
        animation: neon-flicker 1.5s infinite;
      }
      @keyframes neon-flicker {
        0%, 19%, 21%, 23%, 25%, 54%, 56%, 100% {
          opacity: 1;
        }
        20%, 24%, 55% {
          opacity: 0.6;
        }
      }
      ]]>
    </style>
  </defs>

  <!-- Your doodles group -->
  <g class="doodle" stroke-width="4" fill="none" opacity="0.3">
    <!-- Squiggles -->
    <path d="M50,200 q100,-150 200,0" />
    <path d="M300,100 c50,80 150,-80 200,0" />
    <path d="M600,300 l-80,100 l80,100" />

    <!-- Circles -->
    <circle cx="100" cy="600" r="20"/>
    <circle cx="700" cy="150" r="15"/>
    <circle cx="400" cy="400" r="30"/>

    <!-- Stars -->
    <path d="M200,500 l10,30 l20,-25 l-30,0 l20,-25z"/>
    <path d="M550,650 l8,24 l16,-20 l-24,0 l16,-20z"/>

    <!-- Zig-zag lines -->
    <path d="M0,0 l50,50 l-50,50 l50,50" />
    <path d="M750,750 l-50,-50 l50,-50 l-50,-50" />

    <!-- Random loops -->
    <path d="M150,350 q50,50 100,0 q-50,-50 -100,0" />
    <path d="M500,250 q-60,40 0,80 q60,-40 0,-80" />
  </g>
</svg>
